<?xml version="1.0" standalone="no"?>
<!DOCTYPE svg PUBLIC "-//W3C//DTD SVG 1.1//EN" "http://www.w3.org/Graphics/SVG/1.1/DTD/svg11.dtd" >
<svg xmlns="http://www.w3.org/2000/svg" xmlns:xlink="http://www.w3.org/1999/xlink" version="1.1">
<metadata></metadata>
<defs>
<font id="aero_maticsitalic" horiz-adv-x="1000" >
<font-face units-per-em="2048" ascent="1638" descent="-410" />
<missing-glyph horiz-adv-x="400" />
<glyph horiz-adv-x="0" />
<glyph horiz-adv-x="682" />
<glyph unicode=" "  horiz-adv-x="400" />
<glyph unicode="&#x09;" horiz-adv-x="400" />
<glyph unicode="&#xa0;" horiz-adv-x="400" />
<glyph unicode="!" horiz-adv-x="400" d="M100 0l28 200h200l-28 -200h-200zM156 400l141 1000h200l-141 -1000h-200z" />
<glyph unicode="&#x22;" horiz-adv-x="800" d="M255 1100l142 300h200l-142 -300h-200zM555 1100l142 300h200l-142 -300h-200z" />
<glyph unicode="#" horiz-adv-x="1400" d="M149 350l28 200h215l132 300h-205l29 200h265l154 350h200l-154 -350h300l154 350h200l-154 -350h135l-29 -200h-195l-132 -300h185l-28 -200h-245l-154 -350h-200l154 350h-300l-154 -350h-200l154 350h-155zM592 550h300l132 300h-300z" />
<glyph unicode="$" horiz-adv-x="1100" d="M100 0l28 200h400l56 400h-50q-306 0 -306 268q0 38 6 82l14 100q49 350 399 350h50l28 200h100l-28 -200h400l-28 -200h-400l-57 -400h50q307 0 307 -269q0 -38 -6 -81l-14 -100q-49 -350 -399 -350h-50l-28 -200h-100l28 200h-400zM431 914q0 -114 131 -114h50l57 400 h-50q-150 0 -171 -150l-14 -100q-3 -19 -3 -36zM628 200h50q150 0 171 150l14 100q3 18 3 35q0 115 -132 115h-50z" />
<glyph unicode="%" horiz-adv-x="1900" d="M228 868q0 38 6 82l14 100q49 350 399 350q307 0 307 -269q0 -38 -6 -81l-14 -100q-50 -350 -400 -350q-306 0 -306 268zM431 914q0 -114 131 -114q150 0 172 150l14 100q3 18 3 35q0 115 -132 115q-150 0 -171 -150l-14 -100q-3 -19 -3 -36zM500 0l887 1400h210 l-887 -1400h-210zM1143 269q0 38 6 81l14 100q49 350 399 350q307 0 307 -269q0 -38 -6 -81l-14 -100q-49 -350 -399 -350q-307 0 -307 269zM1346 315q0 -115 132 -115q150 0 171 150l14 100q3 18 3 35q0 115 -132 115q-150 0 -171 -150l-14 -100q-3 -18 -3 -35z" />
<glyph unicode="&#x26;" horiz-adv-x="1100" d="M143 269q0 38 6 81l14 100q31 220 205 250q-139 25 -139 185q0 30 5 65l14 100q49 350 399 350h450l-28 -200h-450q-150 0 -171 -150l-14 -100q-3 -19 -3 -36q0 -114 131 -114h250l22 150h200l-22 -150h100l-28 -200h-100l-84 -600h-450q-307 0 -307 269zM346 315 q0 -115 132 -115h250l56 400h-250q-150 0 -171 -150l-14 -100q-3 -18 -3 -35z" />
<glyph unicode="'" horiz-adv-x="500" d="M255 1100l142 300h200l-142 -300h-200z" />
<glyph unicode="(" horiz-adv-x="700" d="M181 468q0 113 17 232q71 500 407 900h220q-356 -400 -427 -900q-16 -111 -16 -218q0 -371 190 -682h-220q-171 305 -171 668z" />
<glyph unicode=")" horiz-adv-x="700" d="M72 -200q356 400 426 900q16 113 16 220q0 370 -189 680h220q170 -304 170 -665q0 -115 -17 -235q-70 -500 -406 -900h-220z" />
<glyph unicode="*" horiz-adv-x="722" d="M259 1131l29 120l186 -20l25 179h120l-25 -179l192 20l-5 -120l-166 -16l93 -179l-116 -49l-83 165l-129 -165l-102 49l142 179z" />
<glyph unicode="+" d="M184 600l28 200h300l43 300h200l-43 -300h300l-28 -200h-300l-42 -300h-200l42 300h-300z" />
<glyph unicode="," horiz-adv-x="500" d="M86 -100l142 300h200l-142 -300h-200z" />
<glyph unicode="-" horiz-adv-x="800" d="M184 600l28 200h600l-28 -200h-600z" />
<glyph unicode="." horiz-adv-x="400" d="M100 0l28 200h200l-28 -200h-200z" />
<glyph unicode="/" horiz-adv-x="820" d="M72 -200l673 1800h200l-673 -1800h-200z" />
<glyph unicode="0" horiz-adv-x="1150" d="M143 269q0 38 6 81l99 700q49 350 399 350h250q307 0 307 -269q0 -38 -6 -81l-99 -700q-49 -350 -399 -350h-250q-307 0 -307 269zM346 315q0 -115 132 -115h250q150 0 171 150l62 440l-605 -390l-7 -50q-3 -18 -3 -35zM386 610l605 390l7 50q3 18 3 35q0 115 -132 115 h-250q-150 0 -171 -150z" />
<glyph unicode="1" horiz-adv-x="500" d="M200 0l169 1200h-100l28 200h300l-197 -1400h-200z" />
<glyph unicode="2" horiz-adv-x="1100" d="M100 0l63 450q49 350 399 350h200q150 0 172 150l14 100q3 18 3 35q0 115 -132 115h-550l28 200h550q307 0 307 -269q0 -38 -6 -81l-14 -100q-50 -350 -400 -350h-200q-150 0 -171 -150l-35 -250h700l-28 -200h-900z" />
<glyph unicode="3" d="M100 0l28 200h450q150 0 171 150l14 100q3 18 3 35q0 115 -132 115h-450l28 200h450q150 0 172 150l14 100q3 18 3 35q0 115 -132 115h-450l28 200h450q307 0 307 -269q0 -38 -6 -81l-14 -100q-31 -220 -206 -250q140 -25 140 -186q0 -29 -5 -64l-14 -100 q-49 -350 -399 -350h-450z" />
<glyph unicode="4" horiz-adv-x="1100" d="M170 500l28 200l389 700h210l-389 -700h490l99 700h200l-197 -1400h-200l70 500h-700z" />
<glyph unicode="5" horiz-adv-x="1050" d="M100 0l28 200h500q150 0 171 150l14 100q3 18 3 35q0 115 -132 115h-500l113 800h850l-28 -200h-650l-57 -400h300q307 0 307 -269q0 -38 -6 -81l-14 -100q-49 -350 -399 -350h-500z" />
<glyph unicode="6" horiz-adv-x="1100" d="M143 271q0 37 6 79l85 600q63 450 513 450h350l-28 -200h-350q-250 0 -285 -250l-22 -150h350q307 0 307 -269q0 -38 -6 -81l-14 -100q-49 -350 -399 -350h-190q-317 0 -317 271zM347 317q0 -117 141 -117h190q150 0 171 150l14 100q3 18 3 35q0 115 -132 115h-350 l-35 -250q-2 -17 -2 -33z" />
<glyph unicode="7" horiz-adv-x="1100" d="M200 0l759 1200h-690l28 200h900l-28 -200l-759 -1200h-210z" />
<glyph unicode="8" horiz-adv-x="1100" d="M143 269q0 38 6 81l14 100q31 220 205 250q-139 25 -139 185q0 30 5 65l14 100q49 350 399 350h200q307 0 307 -269q0 -38 -6 -81l-14 -100q-31 -220 -206 -250q140 -25 140 -186q0 -29 -5 -64l-14 -100q-49 -350 -399 -350h-200q-307 0 -307 269zM346 315 q0 -115 132 -115h200q150 0 171 150l14 100q3 18 3 35q0 115 -132 115h-200q-150 0 -171 -150l-14 -100q-3 -18 -3 -35zM431 914q0 -114 131 -114h200q150 0 172 150l14 100q3 18 3 35q0 115 -132 115h-200q-150 0 -171 -150l-14 -100q-3 -19 -3 -36z" />
<glyph unicode="9" horiz-adv-x="1100" d="M200 0l28 200h350q250 0 285 250l21 150h-350q-306 0 -306 268q0 38 6 82l14 100q49 350 399 350h190q317 0 317 -271q0 -37 -6 -79l-85 -600q-63 -450 -513 -450h-350zM431 914q0 -114 131 -114h350l36 250q2 17 2 33q0 117 -141 117h-190q-150 0 -171 -150l-14 -100 q-3 -19 -3 -36z" />
<glyph unicode=":" horiz-adv-x="400" d="M100 0l28 200h200l-28 -200h-200zM212 800l29 200h200l-29 -200h-200z" />
<glyph unicode=";" horiz-adv-x="400" d="M-14 -100l142 300h200l-142 -300h-200zM212 800l29 200h200l-29 -200h-200z" />
<glyph unicode="&#x3c;" horiz-adv-x="900" d="M184 600l28 200l743 300l-29 -200l-528 -200l472 -200l-28 -200z" />
<glyph unicode="=" horiz-adv-x="800" d="M156 400l28 200h600l-28 -200h-600zM212 800l29 200h600l-29 -200h-600z" />
<glyph unicode="&#x3e;" horiz-adv-x="900" d="M142 300l28 200l528 200l-472 200l29 200l657 -300l-28 -200z" />
<glyph unicode="?" d="M269 1200l28 200h450q307 0 307 -269q0 -38 -6 -81l-14 -100q-50 -350 -400 -350h-50l-28 -200h-200l56 400h250q150 0 172 150l14 100q3 18 3 35q0 115 -132 115h-450zM300 0l28 200h200l-28 -200h-200z" />
<glyph unicode="@" horiz-adv-x="1500" d="M161 385q0 54 9 115l56 400q71 500 571 500h300q438 0 438 -383q0 -55 -9 -117l-42 -300q-42 -300 -292 -300q-202 0 -223 115q-77 -115 -227 -115q-263 0 -263 231q0 32 5 69l28 200q43 300 343 300q150 0 186 -100l14 100h200l-71 -500q-3 -22 -3 -39q0 -61 39 -61 q50 0 64 100l42 300q5 38 5 70q0 230 -262 230h-300q-300 0 -343 -300l-56 -400q-5 -37 -5 -69q0 -231 263 -231h600l-28 -200h-600q-439 0 -439 385zM682 577q0 -77 88 -77q150 0 214 100l28 200q-36 100 -186 100q-100 0 -114 -100l-28 -200q-2 -12 -2 -23z" />
<glyph unicode="A" horiz-adv-x="1100" d="M0 0l617 1400h260l223 -1400h-200l-51 300h-514l-135 -300h-200zM424 500h392l-97 700z" />
<glyph unicode="B" horiz-adv-x="1100" d="M100 0l197 1400h550q307 0 307 -269q0 -38 -6 -81l-14 -100q-31 -220 -206 -250q140 -25 140 -186q0 -29 -5 -64l-14 -100q-49 -350 -399 -350h-550zM328 200h350q150 0 171 150l14 100q3 18 3 35q0 115 -132 115h-350zM412 800h350q150 0 172 150l14 100q3 18 3 35 q0 115 -132 115h-350z" />
<glyph unicode="C" d="M143 269q0 38 6 81l99 700q49 350 399 350h450l-28 -200h-450q-150 0 -171 -150l-99 -700q-3 -18 -3 -35q0 -115 132 -115h450l-28 -200h-450q-307 0 -307 269z" />
<glyph unicode="D" horiz-adv-x="1100" d="M100 0l197 1400h550q307 0 307 -269q0 -38 -6 -81l-99 -700q-49 -350 -399 -350h-550zM328 200h350q150 0 171 150l99 700q3 18 3 35q0 115 -132 115h-350z" />
<glyph unicode="E" d="M100 0l197 1400h800l-28 -200h-600l-57 -400h600l-28 -200h-600l-56 -400h600l-28 -200h-800z" />
<glyph unicode="F" d="M100 0l197 1400h800l-28 -200h-600l-57 -400h600l-28 -200h-600l-84 -600h-200z" />
<glyph unicode="G" horiz-adv-x="1100" d="M143 269q0 38 6 81l99 700q49 350 399 350h550l-28 -200h-550q-150 0 -171 -150l-99 -700q-3 -18 -3 -35q0 -115 132 -115h200q150 0 171 150l35 250h-300l28 200h500l-63 -450q-49 -350 -399 -350h-200q-307 0 -307 269z" />
<glyph unicode="H" horiz-adv-x="1100" d="M100 0l197 1400h200l-85 -600h500l85 600h200l-197 -1400h-200l84 600h-500l-84 -600h-200z" />
<glyph unicode="I" horiz-adv-x="400" d="M100 0l197 1400h200l-197 -1400h-200z" />
<glyph unicode="J" horiz-adv-x="700" d="M100 0l28 200h100q200 0 228 200l141 1000h200l-141 -1000q-56 -400 -456 -400h-100z" />
<glyph unicode="K" horiz-adv-x="1150" d="M100 0l197 1400h200l-96 -680l646 680h250l-649 -700l452 -700h-250l-454 680l-96 -680h-200z" />
<glyph unicode="L" d="M100 0l197 1400h200l-169 -1200h600l-28 -200h-800z" />
<glyph unicode="M" horiz-adv-x="1500" d="M100 0l197 1400h270l232 -1050l528 1050h270l-197 -1400h-200l148 1050l-518 -1050h-160l-222 1050l-148 -1050h-200z" />
<glyph unicode="N" horiz-adv-x="1200" d="M100 0l197 1400h200l459 -1000l141 1000h200l-197 -1400h-200l-459 1000l-141 -1000h-200z" />
<glyph unicode="O" horiz-adv-x="1150" d="M143 269q0 38 6 81l99 700q49 350 399 350h250q307 0 307 -269q0 -38 -6 -81l-99 -700q-49 -350 -399 -350h-250q-307 0 -307 269zM346 315q0 -115 132 -115h250q150 0 171 150l99 700q3 18 3 35q0 115 -132 115h-250q-150 0 -171 -150l-99 -700q-3 -18 -3 -35z" />
<glyph unicode="P" horiz-adv-x="1100" d="M100 0l197 1400h550q307 0 307 -269q0 -38 -6 -81l-14 -100q-50 -350 -400 -350h-350l-84 -600h-200zM412 800h350q150 0 172 150l14 100q3 18 3 35q0 115 -132 115h-350z" />
<glyph unicode="Q" horiz-adv-x="1150" d="M143 269q0 38 6 81l99 700q49 350 399 350h250q307 0 307 -269q0 -38 -6 -81l-99 -700q-41 -290 -279 -350l52 -200h-170l-52 200h-200q-307 0 -307 269zM346 315q0 -115 132 -115h110l-52 200h170l52 -200q120 0 141 150l99 700q3 18 3 35q0 115 -132 115h-250 q-150 0 -171 -150l-99 -700q-3 -18 -3 -35z" />
<glyph unicode="R" horiz-adv-x="1100" d="M100 0l197 1400h550q307 0 307 -269q0 -38 -6 -81l-14 -100q-45 -315 -283 -346l149 -604h-200l-148 600h-268l-84 -600h-200zM412 800h350q150 0 172 150l14 100q3 18 3 35q0 115 -132 115h-350z" />
<glyph unicode="S" horiz-adv-x="1100" d="M100 0l28 200h550q150 0 171 150l14 100q3 18 3 35q0 115 -132 115h-200q-306 0 -306 268q0 38 6 82l14 100q49 350 399 350h550l-28 -200h-550q-150 0 -171 -150l-14 -100q-3 -19 -3 -36q0 -114 131 -114h200q307 0 307 -269q0 -38 -6 -81l-14 -100q-49 -350 -399 -350 h-550z" />
<glyph unicode="T" horiz-adv-x="1100" d="M269 1200l28 200h900l-28 -200h-350l-169 -1200h-200l169 1200h-350z" />
<glyph unicode="U" horiz-adv-x="1150" d="M143 269q0 38 6 81l148 1050h200l-148 -1050q-3 -18 -3 -35q0 -115 132 -115h250q150 0 171 150l148 1050h200l-148 -1050q-49 -350 -399 -350h-250q-307 0 -307 269z" />
<glyph unicode="V" horiz-adv-x="1100" d="M197 1400h200l181 -1200l519 1200h200l-617 -1400h-260z" />
<glyph unicode="W" horiz-adv-x="1500" d="M197 1400h200l45 -1100l405 1100h200l95 -1100l355 1100h200l-467 -1400h-260l-68 1081l-372 -1081h-260z" />
<glyph unicode="X" horiz-adv-x="1200" d="M100 0l433 700l-236 700h230l186 -596l354 596h230l-434 -700l237 -700h-230l-186 595l-354 -595h-230z" />
<glyph unicode="Y" d="M197 1400h220l195 -600l365 600h220l-513 -800l-84 -600h-200l84 600z" />
<glyph unicode="Z" horiz-adv-x="1100" d="M100 0l28 200l811 1000h-670l28 200h900l-28 -200l-811 -1000h670l-28 -200h-900z" />
<glyph unicode="[" horiz-adv-x="600" d="M72 -200l253 1800h400l-28 -200h-200l-197 -1400h200l-28 -200h-400z" />
<glyph unicode="\" horiz-adv-x="820" d="M325 1600h200l167 -1800h-200z" />
<glyph unicode="]" horiz-adv-x="600" d="M72 -200l28 200h200l197 1400h-200l28 200h400l-253 -1800h-400z" />
<glyph unicode="^" d="M198 700l399 700h200l201 -700h-200l-129 500l-271 -500h-200z" />
<glyph unicode="_" horiz-adv-x="800" d="M-56 -400l28 200h800l-28 -200h-800z" />
<glyph unicode="`" horiz-adv-x="500" d="M297 1400h210l48 -300h-160z" />
<glyph unicode="a" d="M138 239q0 29 4 61q42 300 392 300q150 0 236 -100l14 100q3 25 3 46q0 154 -175 154h-300l29 200h300q350 0 350 -306q0 -44 -7 -94l-84 -600h-170l-16 100q-114 -100 -264 -100q-312 0 -312 239zM341 284q0 -84 137 -84q150 0 257 50l14 100q-93 50 -243 50t-164 -100 q-1 -9 -1 -16z" />
<glyph unicode="b" d="M100 0l197 1400h200l-71 -500q115 100 265 100q306 0 306 -268q0 -38 -6 -82l-42 -300q-49 -350 -399 -350q-150 0 -236 100l-44 -100h-170zM335 250q93 -50 243 -50t171 150l42 300q3 18 3 35q0 115 -132 115q-150 0 -257 -50z" />
<glyph unicode="c" horiz-adv-x="951" d="M143 269q0 38 6 81l42 300q50 350 400 350h400l-29 -200h-400q-150 0 -171 -150l-42 -300q-3 -18 -3 -35q0 -115 132 -115h400l-28 -200h-400q-307 0 -307 269z" />
<glyph unicode="d" d="M143 269q0 38 6 81l42 300q50 350 400 350q150 0 235 -100l71 500h200l-197 -1400h-170l-16 100q-114 -100 -264 -100q-307 0 -307 269zM346 315q0 -115 132 -115q150 0 257 50l70 500q-93 50 -243 50t-171 -150l-42 -300q-3 -18 -3 -35z" />
<glyph unicode="e" d="M143 269q0 38 6 81l42 300q50 350 400 350h100q306 0 306 -268q0 -38 -6 -82l-32 -230h-600l-10 -70q-3 -18 -3 -35q0 -115 132 -115h400l-28 -200h-400q-307 0 -307 269zM382 580h400l9 70q3 18 3 35q0 115 -132 115h-100q-150 0 -171 -150z" />
<glyph unicode="f" horiz-adv-x="800" d="M212 800l29 200h150l7 50q49 350 399 350h100l-28 -200h-100q-150 0 -171 -150l-7 -50h250l-29 -200h-250l-112 -800h-200l112 800h-150z" />
<glyph unicode="g" d="M143 269q0 38 6 81l42 300q50 350 400 350q150 0 235 -100l45 100h170l-141 -1000q-56 -400 -456 -400h-300l28 200h300q200 0 228 200l14 100q-114 -100 -264 -100q-307 0 -307 269zM346 315q0 -115 132 -115q150 0 257 50l70 500q-93 50 -243 50t-171 -150l-42 -300 q-3 -18 -3 -35z" />
<glyph unicode="h" d="M100 0l197 1400h200l-71 -500q115 100 265 100q306 0 306 -268q0 -38 -6 -82l-91 -650h-200l91 650q3 18 3 35q0 115 -132 115q-150 0 -257 -50l-105 -750h-200z" />
<glyph unicode="i" horiz-adv-x="400" d="M100 0l141 1000h200l-141 -1000h-200zM269 1200l28 200h200l-28 -200h-200z" />
<glyph unicode="j" horiz-adv-x="400" d="M-156 -400l28 200h50q150 0 171 150l148 1050h200l-148 -1050q-49 -350 -399 -350h-50zM269 1200l28 200h200l-28 -200h-200z" />
<glyph unicode="k" horiz-adv-x="950" d="M100 0l197 1400h200l-120 -850l424 450h240l-461 -500l320 -500h-240l-297 450l-63 -450h-200z" />
<glyph unicode="l" horiz-adv-x="400" d="M100 0l197 1400h200l-197 -1400h-200z" />
<glyph unicode="m" horiz-adv-x="1500" d="M100 0l141 1000h170l15 -100q65 100 215 100q173 0 237 -130q137 130 283 130q336 0 336 -273q0 -36 -6 -77l-91 -650h-200l91 650q2 16 2 31q0 119 -152 119q-121 0 -193 -100l-98 -700h-200l100 710q-23 90 -138 90q-150 0 -214 -100l-98 -700h-200z" />
<glyph unicode="n" d="M100 0l141 1000h170l15 -100q115 100 265 100q306 0 306 -268q0 -38 -6 -82l-91 -650h-200l91 650q3 18 3 35q0 115 -132 115q-150 0 -257 -50l-105 -750h-200z" />
<glyph unicode="o" d="M137 231q0 32 5 69l56 400q43 300 343 300h200q262 0 262 -230q0 -32 -5 -70l-56 -400q-42 -300 -342 -300h-200q-263 0 -263 231zM340 277q0 -77 88 -77h200q100 0 114 100l56 400q1 10 1 20q0 70 -88 70h-200q-100 0 -113 -90l-56 -400q-2 -12 -2 -23z" />
<glyph unicode="p" d="M44 -400l197 1400h170l18 -80q52 80 212 80h100q262 0 262 -230q0 -32 -5 -70l-56 -400q-42 -300 -342 -300h-100q-160 0 -189 80l-67 -480h-200zM335 250q33 -50 193 -50h100q100 0 114 100l56 400q2 12 2 23q0 77 -88 77h-100q-160 0 -207 -50z" />
<glyph unicode="q" d="M137 231q0 32 5 69l56 400q43 300 343 300h100q150 0 188 -80l42 80h170l-197 -1400h-200l67 480q-61 -80 -211 -80h-100q-263 0 -263 231zM340 277q0 -77 88 -77h100q150 0 207 50l70 500q-43 50 -193 50h-100q-100 0 -114 -100l-56 -400q-2 -12 -2 -23z" />
<glyph unicode="r" horiz-adv-x="650" d="M100 0l141 1000h170l15 -100q115 100 265 100h50l-29 -200h-50q-150 0 -257 -50l-105 -750h-200z" />
<glyph unicode="s" horiz-adv-x="950" d="M100 0l28 200h450q100 0 114 100q2 15 2 28q0 82 -86 82h-150q-265 0 -265 226q0 30 5 64q43 300 343 300h450l-29 -200h-450q-100 0 -114 -100q-1 -10 -1 -18q0 -72 89 -72h150q262 0 262 -236q0 -34 -6 -74q-42 -300 -342 -300h-450z" />
<glyph unicode="t" horiz-adv-x="800" d="M212 800l29 200h150l42 300l214 100l-56 -400h250l-29 -200h-250l-63 -450q-3 -18 -3 -35q0 -115 132 -115h100l-28 -200h-100q-307 0 -307 269q0 38 6 81l63 450h-150z" />
<glyph unicode="u" d="M143 269q0 38 6 81l92 650h200l-92 -650q-3 -18 -3 -35q0 -115 132 -115q150 0 257 50l106 750h200l-141 -1000h-170l-16 100q-114 -100 -264 -100q-307 0 -307 269z" />
<glyph unicode="v" horiz-adv-x="900" d="M191 1000h200l94 -750l306 750h200l-421 -1000h-240z" />
<glyph unicode="w" horiz-adv-x="1400" d="M191 1000h200l50 -780l280 780h240l59 -790l271 790h200l-371 -1000h-250l-67 732l-273 -732h-250z" />
<glyph unicode="x" horiz-adv-x="1100" d="M100 0l350 500l-209 500h220l172 -412l288 412h220l-351 -500l210 -500h-220l-172 412l-288 -412h-220z" />
<glyph unicode="y" d="M143 269q0 38 6 81l92 650h200l-92 -650q-3 -18 -3 -35q0 -115 132 -115q150 0 257 50l106 750h200l-141 -1000q-56 -400 -456 -400h-300l28 200h300q200 0 228 200l14 100q-114 -100 -264 -100q-307 0 -307 269z" />
<glyph unicode="z" d="M100 0l28 200l624 600h-540l29 200h800l-29 -200l-624 -600h540l-28 -200h-800z" />
<glyph unicode="{" horiz-adv-x="800" d="M184 600l28 200q200 0 222 150l35 250q56 400 456 400l-28 -200q-200 0 -228 -200l-35 -250q-31 -220 -236 -250q169 -26 169 -193q0 -27 -4 -57l-35 -250q-3 -25 -3 -46q0 -154 175 -154l-28 -200q-351 0 -351 308q0 43 7 92l35 250q2 14 2 27q0 123 -181 123z" />
<glyph unicode="|" horiz-adv-x="400" d="M72 -200l253 1800h200l-253 -1800h-200z" />
<glyph unicode="}" horiz-adv-x="800" d="M72 -200l28 200q200 0 228 200l35 250q31 220 235 250q-168 26 -168 193q0 27 4 57l35 250q3 25 3 46q0 154 -175 154l28 200q351 0 351 -308q0 -43 -7 -92l-35 -250q-2 -15 -2 -28q0 -122 180 -122l-28 -200q-200 0 -221 -150l-35 -250q-56 -400 -456 -400z" />
<glyph unicode="~" horiz-adv-x="1100" d="M170 500q42 300 292 300q130 0 209.5 -75t179.5 -75q90 0 111 150h150q-42 -300 -292 -300q-130 0 -210 70t-180 70q-90 0 -110 -140h-150z" />
<glyph unicode="&#xa1;" horiz-adv-x="400" d="M58 -300l140 1000h200l-140 -1000h-200zM227 900l28 200h200l-29 -200h-199z" />
<glyph unicode="&#xa2;" horiz-adv-x="900" d="M171 469q0 38 6 81l42 300q50 350 400 350h50l28 200h100l-28 -200h250l-28 -200h-250l-85 -600h250l-28 -200h-250l-28 -200h-100l28 200h-50q-307 0 -307 269zM374 515q0 -115 132 -115h50l85 600h-50q-150 0 -172 -150l-42 -300q-3 -18 -3 -35z" />
<glyph unicode="&#xa3;" horiz-adv-x="1100" d="M100 0l28 200h150l56 400h-150l28 200h150l22 150q63 450 513 450h300l-28 -200h-300q-250 0 -285 -250l-22 -150h550l-28 -200h-550l-56 -400h550l-28 -200h-900z" />
<glyph unicode="&#xa5;" d="M121 150l21 150h300l21 150h-300l21 150h300l-287 800h210l205 -600l375 600h210l-513 -800h300l-21 -150h-300l-21 -150h300l-21 -150h-300l-21 -150h-200l21 150h-300z" />
<glyph unicode="&#xa6;" horiz-adv-x="400" d="M72 -200l112 800h200l-112 -800h-200zM212 800l113 800h200l-113 -800h-200z" />
<glyph unicode="&#xa8;" horiz-adv-x="800" d="M255 1100l28 200h200l-28 -200h-200zM655 1100l28 200h200l-28 -200h-200z" />
<glyph unicode="&#xa9;" horiz-adv-x="1395" d="M191 607q0 44 7 91q35 247 234.5 422t447.5 175q247 0 398 -175q122 -142 122 -331q0 -44 -7 -91q-35 -248 -234.5 -423t-446.5 -175q-248 0 -398 175q-123 142 -123 332zM334 630q0 -146 94 -255q115 -134 304 -134t342 134t179 323q5 36 5 70q0 144 -93 253 q-116 134 -305 134t-341.5 -134t-179.5 -323q-5 -35 -5 -68zM476 651q0 23 3 47q19 131 125 223.5t237 92.5t209 -93q59 -67 65 -154h-147q-8 30 -30 55q-44 52 -117 52t-132 -51.5t-69 -124.5q-2 -14 -2 -26q0 -57 36 -98q44 -52 117 -52t132 51q31 28 48 61h146 q-31 -91 -109 -160q-105 -93 -236 -93t-211 93q-65 76 -65 177z" />
<glyph unicode="&#xab;" horiz-adv-x="1048" d="M191 650l344 450h220l-344 -450l217 -450h-220zM541 650l344 450h220l-344 -450l217 -450h-220z" />
<glyph unicode="&#xac;" d="M184 600l28 200h800l-70 -500h-200l42 300h-600z" />
<glyph unicode="&#xad;" horiz-adv-x="800" d="M184 600l28 200h600l-28 -200h-600z" />
<glyph unicode="&#xae;" horiz-adv-x="1395" d="M191 604q0 43 6 89q35 247 234.5 422t447.5 175q247 0 398 -175q122 -142 122 -331q0 -44 -7 -91q-34 -248 -234 -423t-447 -175q-248 0 -398 175q-122 143 -122 334zM333 625q0 -146 94 -255q115 -134 304 -134t342 134t179 323q5 36 5 70q0 144 -93 253 q-115 134 -304 134t-342 -134t-180 -323q-5 -35 -5 -68zM499 376l89 633h302q185 0 185 -162q0 -23 -4 -49q-19 -136 -122 -185l63 -237h-152l-53 211h-138l-29 -211h-141zM689 728h161q70 0 80 70q1 9 1 17q0 54 -61 54h-161z" />
<glyph unicode="&#xb0;" horiz-adv-x="620" d="M266 1167q0 16 3 33q12 87 82 148.5t157 61.5t140 -61q43 -51 43 -118q0 -15 -2 -31q-13 -87 -83 -148.5t-157 -61.5t-140 62q-43 49 -43 115zM388 1185q0 -27 18 -48q23 -27 60 -27t67 26.5t36 63.5q1 7 1 13q0 29 -19 51q-23 26 -60 26t-67 -26.5t-35 -63.5 q-1 -8 -1 -15z" />
<glyph unicode="&#xb1;" d="M100 0l28 200h800l-28 -200h-800zM184 600l28 200h300l43 300h200l-43 -300h300l-28 -200h-300l-42 -300h-200l42 300h-300z" />
<glyph unicode="&#xb4;" horiz-adv-x="500" d="M255 1100l132 300h210l-182 -300h-160z" />
<glyph unicode="&#xb5;" d="M37 -446l204 1446h200l-99 -700q36 -100 186 -100t214 100l99 700h200l-141 -1000h-200l14 100q-64 -100 -214 -100t-188 84l-75 -530h-200z" />
<glyph unicode="&#xb6;" horiz-adv-x="1200" d="M234 906q0 44 7 94q56 400 456 400h600l-253 -1800h-200l225 1600h-200l-225 -1600h-200l140 1000q-350 0 -350 306z" />
<glyph unicode="&#xb7;" horiz-adv-x="400" d="M184 600l28 200h200l-28 -200h-200z" />
<glyph unicode="&#xb8;" horiz-adv-x="600" d="M44 -400l18 130q76 -30 176 -30q90 0 100 70q1 4 1 8q0 62 -161 62l8 60q17 1 32 1q251 0 251 -115q0 -8 -1 -16q-28 -200 -248 -200q-100 0 -176 30z" />
<glyph unicode="&#xbb;" horiz-adv-x="1048" d="M128 200l343 450l-216 450h220l216 -450l-343 -450h-220zM478 200l343 450l-216 450h220l216 -450l-343 -450h-220z" />
<glyph unicode="&#xbf;" d="M101 -31q0 38 6 81l14 100q49 350 399 350h50l28 200h200l-56 -400h-250q-150 0 -171 -150l-14 -100q-3 -18 -3 -35q0 -115 132 -115h450l-28 -200h-450q-307 0 -307 269zM627 900l28 200h200l-28 -200h-200z" />
<glyph unicode="&#xc0;" horiz-adv-x="1100" d="M0 0l617 1400h260l223 -1400h-200l-51 300h-514l-135 -300h-200zM424 500h392l-97 700zM603 1800h210l48 -300h-160z" />
<glyph unicode="&#xc1;" horiz-adv-x="1100" d="M0 0l617 1400h260l223 -1400h-200l-51 300h-514l-135 -300h-200zM424 500h392l-97 700zM661 1500l132 300h210l-182 -300h-160z" />
<glyph unicode="&#xc2;" horiz-adv-x="1100" d="M0 0l617 1400h260l223 -1400h-200l-51 300h-514l-135 -300h-200zM424 500h392l-97 700zM461 1500l222 300h240l138 -300h-170l-102 200l-158 -200h-170z" />
<glyph unicode="&#xc3;" horiz-adv-x="1100" d="M0 0l617 1400h260l223 -1400h-200l-51 300h-514l-135 -300h-200zM391 1500q35 250 225 250q100 0 173 -50t163 -50q70 0 84 100h130q-35 -250 -225 -250q-100 0 -173 50t-163 50q-70 0 -84 -100h-130zM424 500h392l-97 700z" />
<glyph unicode="&#xc4;" horiz-adv-x="1100" d="M0 0l617 1400h260l223 -1400h-200l-51 300h-514l-135 -300h-200zM424 500h392l-97 700zM461 1500l28 200h200l-28 -200h-200zM861 1500l28 200h200l-28 -200h-200z" />
<glyph unicode="&#xc5;" horiz-adv-x="1100" d="M0 0l617 1400h260l223 -1400h-200l-51 300h-514l-135 -300h-200zM424 500h392l-97 700zM577 1668q0 16 2 32q12 87 82 148.5t157 61.5t140 -61q43 -51 43 -118q0 -15 -2 -31q-12 -87 -82.5 -148.5t-157.5 -61.5t-139 62q-43 50 -43 116zM698 1687q0 -29 19 -50 q22 -27 59 -27t67.5 26.5t35.5 63.5q1 7 1 13q0 29 -18 51q-23 26 -60 26t-67.5 -26.5t-35.5 -63.5q-1 -7 -1 -13z" />
<glyph unicode="&#xc6;" horiz-adv-x="1500" d="M0 0l617 1400h980l-28 -200h-500l-57 -400h500l-28 -200h-500l-56 -400h500l-28 -200h-700l42 300h-407l-135 -300h-200zM424 500h346l99 700h-150z" />
<glyph unicode="&#xc7;" d="M143 269q0 38 6 81l99 700q49 350 399 350h450l-28 -200h-450q-150 0 -171 -150l-99 -700q-3 -18 -3 -35q0 -115 132 -115h450l-28 -200h-450q-307 0 -307 269zM344 -400l18 130q76 -30 176 -30q90 0 100 70q1 4 1 8q0 62 -161 62l8 60q17 1 32 1q251 0 251 -115 q0 -8 -1 -16q-28 -200 -248 -200q-100 0 -176 30z" />
<glyph unicode="&#xc8;" d="M100 0l197 1400h800l-28 -200h-600l-57 -400h600l-28 -200h-600l-56 -400h600l-28 -200h-800zM553 1800h210l48 -300h-160z" />
<glyph unicode="&#xc9;" d="M100 0l197 1400h800l-28 -200h-600l-57 -400h600l-28 -200h-600l-56 -400h600l-28 -200h-800zM611 1500l132 300h210l-182 -300h-160z" />
<glyph unicode="&#xca;" d="M100 0l197 1400h800l-28 -200h-600l-57 -400h600l-28 -200h-600l-56 -400h600l-28 -200h-800zM411 1500l222 300h240l138 -300h-170l-102 200l-158 -200h-170z" />
<glyph unicode="&#xcb;" d="M100 0l197 1400h800l-28 -200h-600l-57 -400h600l-28 -200h-600l-56 -400h600l-28 -200h-800zM411 1500l28 200h200l-28 -200h-200zM811 1500l28 200h200l-28 -200h-200z" />
<glyph unicode="&#xcc;" horiz-adv-x="400" d="M100 0l197 1400h200l-197 -1400h-200zM254 1800h210l48 -300h-160z" />
<glyph unicode="&#xcd;" horiz-adv-x="400" d="M100 0l197 1400h200l-197 -1400h-200zM311 1500l132 300h210l-182 -300h-160z" />
<glyph unicode="&#xce;" horiz-adv-x="400" d="M100 0l197 1400h200l-197 -1400h-200zM112 1500l222 300h240l138 -300h-170l-102 200l-158 -200h-170z" />
<glyph unicode="&#xcf;" horiz-adv-x="400" d="M100 0l197 1400h200l-197 -1400h-200zM112 1500l28 200h200l-28 -200h-200zM512 1500l28 200h200l-28 -200h-200z" />
<glyph unicode="&#xd0;" horiz-adv-x="1100" d="M-11 630l21 150h200l87 620h600q263 0 263 -231q0 -32 -5 -69l-113 -800q-42 -300 -342 -300h-600l89 630h-200zM328 200h400q100 0 114 100l113 800q2 12 2 23q0 77 -88 77h-400l-59 -420h200l-21 -150h-200z" />
<glyph unicode="&#xd1;" horiz-adv-x="1200" d="M100 0l197 1400h200l459 -1000l141 1000h200l-197 -1400h-200l-459 1000l-141 -1000h-200zM441 1500q35 250 225 250q100 0 173 -50t163 -50q70 0 84 100h130q-35 -250 -225 -250q-100 0 -173 50t-163 50q-70 0 -84 -100h-130z" />
<glyph unicode="&#xd2;" horiz-adv-x="1150" d="M143 269q0 38 6 81l99 700q49 350 399 350h250q307 0 307 -269q0 -38 -6 -81l-99 -700q-49 -350 -399 -350h-250q-307 0 -307 269zM346 315q0 -115 132 -115h250q150 0 171 150l99 700q3 18 3 35q0 115 -132 115h-250q-150 0 -171 -150l-99 -700q-3 -18 -3 -35zM628 1800 h210l48 -300h-160z" />
<glyph unicode="&#xd3;" horiz-adv-x="1150" d="M143 269q0 38 6 81l99 700q49 350 399 350h250q307 0 307 -269q0 -38 -6 -81l-99 -700q-49 -350 -399 -350h-250q-307 0 -307 269zM346 315q0 -115 132 -115h250q150 0 171 150l99 700q3 18 3 35q0 115 -132 115h-250q-150 0 -171 -150l-99 -700q-3 -18 -3 -35zM686 1500 l132 300h210l-182 -300h-160z" />
<glyph unicode="&#xd4;" horiz-adv-x="1150" d="M143 269q0 38 6 81l99 700q49 350 399 350h250q307 0 307 -269q0 -38 -6 -81l-99 -700q-49 -350 -399 -350h-250q-307 0 -307 269zM346 315q0 -115 132 -115h250q150 0 171 150l99 700q3 18 3 35q0 115 -132 115h-250q-150 0 -171 -150l-99 -700q-3 -18 -3 -35zM486 1500 l222 300h240l138 -300h-170l-102 200l-158 -200h-170z" />
<glyph unicode="&#xd5;" horiz-adv-x="1150" d="M143 269q0 38 6 81l99 700q49 350 399 350h250q307 0 307 -269q0 -38 -6 -81l-99 -700q-49 -350 -399 -350h-250q-307 0 -307 269zM346 315q0 -115 132 -115h250q150 0 171 150l99 700q3 18 3 35q0 115 -132 115h-250q-150 0 -171 -150l-99 -700q-3 -18 -3 -35zM416 1500 q35 250 225 250q100 0 173 -50t163 -50q70 0 84 100h130q-35 -250 -225 -250q-100 0 -173 50t-163 50q-70 0 -84 -100h-130z" />
<glyph unicode="&#xd6;" horiz-adv-x="1150" d="M143 269q0 38 6 81l99 700q49 350 399 350h250q307 0 307 -269q0 -38 -6 -81l-99 -700q-49 -350 -399 -350h-250q-307 0 -307 269zM346 315q0 -115 132 -115h250q150 0 171 150l99 700q3 18 3 35q0 115 -132 115h-250q-150 0 -171 -150l-99 -700q-3 -18 -3 -35zM486 1500 l28 200h200l-28 -200h-200zM886 1500l28 200h200l-28 -200h-200z" />
<glyph unicode="&#xd7;" horiz-adv-x="1049" d="M158 411l323 283l-244 283l161 141l243 -283l323 283l122 -141l-322 -283l243 -283l-162 -141l-243 283l-323 -283z" />
<glyph unicode="&#xd8;" horiz-adv-x="1150" d="M143 269q0 38 6 81l99 700q49 350 399 350h225l78 200h150l-83 -213q187 -47 187 -257q0 -38 -6 -80l-99 -700q-49 -350 -399 -350h-225l-78 -200h-150l83 213q-187 46 -187 256zM346 316q0 -79 62 -104l386 988h-175q-150 0 -171 -150l-99 -700q-3 -18 -3 -34zM553 200 h175q150 0 171 150l99 700q3 18 3 34q0 79 -62 104z" />
<glyph unicode="&#xd9;" horiz-adv-x="1150" d="M143 269q0 38 6 81l148 1050h200l-148 -1050q-3 -18 -3 -35q0 -115 132 -115h250q150 0 171 150l148 1050h200l-148 -1050q-49 -350 -399 -350h-250q-307 0 -307 269zM628 1800h210l48 -300h-160z" />
<glyph unicode="&#xda;" horiz-adv-x="1150" d="M143 269q0 38 6 81l148 1050h200l-148 -1050q-3 -18 -3 -35q0 -115 132 -115h250q150 0 171 150l148 1050h200l-148 -1050q-49 -350 -399 -350h-250q-307 0 -307 269zM686 1500l132 300h210l-182 -300h-160z" />
<glyph unicode="&#xdb;" horiz-adv-x="1150" d="M143 269q0 38 6 81l148 1050h200l-148 -1050q-3 -18 -3 -35q0 -115 132 -115h250q150 0 171 150l148 1050h200l-148 -1050q-49 -350 -399 -350h-250q-307 0 -307 269zM486 1500l222 300h240l138 -300h-170l-102 200l-158 -200h-170z" />
<glyph unicode="&#xdc;" horiz-adv-x="1150" d="M143 269q0 38 6 81l148 1050h200l-148 -1050q-3 -18 -3 -35q0 -115 132 -115h250q150 0 171 150l148 1050h200l-148 -1050q-49 -350 -399 -350h-250q-307 0 -307 269zM486 1500l28 200h200l-28 -200h-200zM886 1500l28 200h200l-28 -200h-200z" />
<glyph unicode="&#xdd;" d="M197 1400h220l195 -600l365 600h220l-513 -800l-84 -600h-200l84 600zM611 1500l132 300h210l-182 -300h-160z" />
<glyph unicode="&#xde;" horiz-adv-x="1100" d="M100 0l197 1400h200l-47 -330h350q307 0 307 -269q0 -38 -6 -81l-7 -50q-49 -350 -399 -350h-350l-45 -320h-200zM373 520h350q150 0 171 150l7 50q3 18 3 35q0 115 -132 115h-350z" />
<glyph unicode="&#xdf;" horiz-adv-x="1100" d="M100 0l148 1050q49 350 349 350h250q307 0 307 -269q0 -38 -6 -81l-22 -150q-23 -170 -198 -200q140 -25 140 -186q0 -29 -5 -64l-14 -100q-49 -350 -399 -350h-250l28 200h250q150 0 171 150l14 100q3 18 3 35q0 115 -132 115h-250l28 200h250q150 0 164 100l22 150 q3 18 3 35q0 115 -132 115h-250q-100 0 -121 -150l-148 -1050h-200z" />
<glyph unicode="&#xe0;" d="M138 239q0 29 4 61q42 300 392 300q150 0 236 -100l14 100q3 25 3 46q0 154 -175 154h-300l29 200h300q350 0 350 -306q0 -44 -7 -94l-84 -600h-170l-16 100q-114 -100 -264 -100q-312 0 -312 239zM341 284q0 -84 137 -84q150 0 257 50l14 100q-93 50 -243 50t-164 -100 q-1 -9 -1 -16zM497 1400h210l48 -300h-160z" />
<glyph unicode="&#xe1;" d="M138 239q0 29 4 61q42 300 392 300q150 0 236 -100l14 100q3 25 3 46q0 154 -175 154h-300l29 200h300q350 0 350 -306q0 -44 -7 -94l-84 -600h-170l-16 100q-114 -100 -264 -100q-312 0 -312 239zM341 284q0 -84 137 -84q150 0 257 50l14 100q-93 50 -243 50t-164 -100 q-1 -9 -1 -16zM555 1100l132 300h210l-182 -300h-160z" />
<glyph unicode="&#xe2;" d="M138 239q0 29 4 61q42 300 392 300q150 0 236 -100l14 100q3 25 3 46q0 154 -175 154h-300l29 200h300q350 0 350 -306q0 -44 -7 -94l-84 -600h-170l-16 100q-114 -100 -264 -100q-312 0 -312 239zM341 284q0 -84 137 -84q150 0 257 50l14 100q-93 50 -243 50t-164 -100 q-1 -9 -1 -16zM355 1100l222 300h240l138 -300h-170l-102 200l-158 -200h-170z" />
<glyph unicode="&#xe3;" d="M138 239q0 29 4 61q42 300 392 300q150 0 236 -100l14 100q3 25 3 46q0 154 -175 154h-300l29 200h300q350 0 350 -306q0 -44 -7 -94l-84 -600h-170l-16 100q-114 -100 -264 -100q-312 0 -312 239zM285 1100q35 250 225 250q100 0 173 -50t163 -50q70 0 84 100h130 q-35 -250 -225 -250q-100 0 -173 50t-163 50q-70 0 -84 -100h-130zM341 284q0 -84 137 -84q150 0 257 50l14 100q-93 50 -243 50t-164 -100q-1 -9 -1 -16z" />
<glyph unicode="&#xe4;" d="M138 239q0 29 4 61q42 300 392 300q150 0 236 -100l14 100q3 25 3 46q0 154 -175 154h-300l29 200h300q350 0 350 -306q0 -44 -7 -94l-84 -600h-170l-16 100q-114 -100 -264 -100q-312 0 -312 239zM341 284q0 -84 137 -84q150 0 257 50l14 100q-93 50 -243 50t-164 -100 q-1 -9 -1 -16zM355 1100l28 200h200l-28 -200h-200zM755 1100l28 200h200l-28 -200h-200z" />
<glyph unicode="&#xe5;" d="M138 239q0 29 4 61q42 300 392 300q150 0 236 -100l14 100q3 25 3 46q0 154 -175 154h-300l29 200h300q350 0 350 -306q0 -44 -7 -94l-84 -600h-170l-16 100q-114 -100 -264 -100q-312 0 -312 239zM341 284q0 -84 137 -84q150 0 257 50l14 100q-93 50 -243 50t-164 -100 q-1 -9 -1 -16zM470 1267q0 16 3 33q12 87 82 148.5t157 61.5t140 -61q43 -51 43 -118q0 -15 -2 -31q-13 -87 -83 -148.5t-157 -61.5t-140 62q-43 49 -43 115zM592 1287q0 -29 19 -50q22 -27 59 -27t67.5 26.5t35.5 63.5q1 7 1 13q0 29 -19 51q-23 26 -60 26t-67 -26.5 t-35 -63.5q-1 -7 -1 -13z" />
<glyph unicode="&#xe6;" horiz-adv-x="1550" d="M138 239q0 29 4 61q42 300 392 300q150 0 236 -100l14 100q3 25 3 46q0 154 -175 154h-300l29 200h300q238 0 277 -127q67 127 273 127h50q306 0 306 -268q0 -38 -6 -82l-32 -230h-550l-17 -120q-2 -12 -2 -23q0 -77 88 -77h400l-28 -200h-400q-152 0 -211 106 q-91 -106 -339 -106q-312 0 -312 239zM341 284q0 -84 137 -84q150 0 257 50l14 100q-93 50 -243 50t-164 -100q-1 -9 -1 -16zM982 580h350l9 70q3 18 3 35q0 115 -132 115h-50q-150 0 -171 -150z" />
<glyph unicode="&#xe7;" horiz-adv-x="951" d="M143 269q0 38 6 81l42 300q50 350 400 350h400l-29 -200h-400q-150 0 -171 -150l-42 -300q-3 -18 -3 -35q0 -115 132 -115h400l-28 -200h-400q-307 0 -307 269zM219 -400l18 130q76 -30 176 -30q90 0 100 70q1 4 1 8q0 62 -161 62l8 60q17 1 32 1q251 0 251 -115 q0 -8 -1 -16q-28 -200 -248 -200q-100 0 -176 30z" />
<glyph unicode="&#xe8;" d="M143 269q0 38 6 81l42 300q50 350 400 350h100q306 0 306 -268q0 -38 -6 -82l-32 -230h-600l-10 -70q-3 -18 -3 -35q0 -115 132 -115h400l-28 -200h-400q-307 0 -307 269zM382 580h400l9 70q3 18 3 35q0 115 -132 115h-100q-150 0 -171 -150zM497 1400h210l48 -300h-160z " />
<glyph unicode="&#xe9;" d="M143 269q0 38 6 81l42 300q50 350 400 350h100q306 0 306 -268q0 -38 -6 -82l-32 -230h-600l-10 -70q-3 -18 -3 -35q0 -115 132 -115h400l-28 -200h-400q-307 0 -307 269zM382 580h400l9 70q3 18 3 35q0 115 -132 115h-100q-150 0 -171 -150zM555 1100l132 300h210 l-182 -300h-160z" />
<glyph unicode="&#xea;" d="M143 269q0 38 6 81l42 300q50 350 400 350h100q306 0 306 -268q0 -38 -6 -82l-32 -230h-600l-10 -70q-3 -18 -3 -35q0 -115 132 -115h400l-28 -200h-400q-307 0 -307 269zM355 1100l222 300h240l138 -300h-170l-102 200l-158 -200h-170zM382 580h400l9 70q3 18 3 35 q0 115 -132 115h-100q-150 0 -171 -150z" />
<glyph unicode="&#xeb;" d="M143 269q0 38 6 81l42 300q50 350 400 350h100q306 0 306 -268q0 -38 -6 -82l-32 -230h-600l-10 -70q-3 -18 -3 -35q0 -115 132 -115h400l-28 -200h-400q-307 0 -307 269zM355 1100l28 200h200l-28 -200h-200zM382 580h400l9 70q3 18 3 35q0 115 -132 115h-100 q-150 0 -171 -150zM755 1100l28 200h200l-28 -200h-200z" />
<glyph unicode="&#xec;" horiz-adv-x="400" d="M100 0l141 1000h200l-141 -1000h-200zM198 1400h210l48 -300h-160z" />
<glyph unicode="&#xed;" horiz-adv-x="400" d="M100 0l141 1000h200l-141 -1000h-200zM255 1100l132 300h210l-182 -300h-160z" />
<glyph unicode="&#xee;" horiz-adv-x="400" d="M56 1100l222 300h240l138 -300h-170l-102 200l-158 -200h-170zM100 0l141 1000h200l-141 -1000h-200z" />
<glyph unicode="&#xef;" horiz-adv-x="400" d="M56 1100l28 200h200l-28 -200h-200zM100 0l141 1000h200l-141 -1000h-200zM456 1100l28 200h200l-28 -200h-200z" />
<glyph unicode="&#xf0;" d="M143 269q0 38 6 81l42 300q50 350 400 350q160 0 238 -80l28 200h-200l21 150h200l19 130h200l-19 -130h200l-21 -150h-200l-157 -1120h-170l-19 80q-101 -80 -261 -80q-307 0 -307 269zM346 315q0 -115 132 -115q160 0 257 50l70 500q-83 50 -243 50q-150 0 -171 -150 l-42 -300q-3 -18 -3 -35z" />
<glyph unicode="&#xf1;" d="M100 0l141 1000h170l15 -100q115 100 265 100q306 0 306 -268q0 -38 -6 -82l-91 -650h-200l91 650q3 18 3 35q0 115 -132 115q-150 0 -257 -50l-105 -750h-200zM285 1100q35 250 225 250q100 0 173 -50t163 -50q70 0 84 100h130q-35 -250 -225 -250q-100 0 -173 50 t-163 50q-70 0 -84 -100h-130z" />
<glyph unicode="&#xf2;" d="M137 231q0 32 5 69l56 400q43 300 343 300h200q262 0 262 -230q0 -32 -5 -70l-56 -400q-42 -300 -342 -300h-200q-263 0 -263 231zM340 277q0 -77 88 -77h200q100 0 114 100l56 400q1 10 1 20q0 70 -88 70h-200q-100 0 -113 -90l-56 -400q-2 -12 -2 -23zM497 1400h210 l48 -300h-160z" />
<glyph unicode="&#xf3;" d="M137 231q0 32 5 69l56 400q43 300 343 300h200q262 0 262 -230q0 -32 -5 -70l-56 -400q-42 -300 -342 -300h-200q-263 0 -263 231zM340 277q0 -77 88 -77h200q100 0 114 100l56 400q1 10 1 20q0 70 -88 70h-200q-100 0 -113 -90l-56 -400q-2 -12 -2 -23zM555 1100 l132 300h210l-182 -300h-160z" />
<glyph unicode="&#xf4;" d="M137 231q0 32 5 69l56 400q43 300 343 300h200q262 0 262 -230q0 -32 -5 -70l-56 -400q-42 -300 -342 -300h-200q-263 0 -263 231zM340 277q0 -77 88 -77h200q100 0 114 100l56 400q1 10 1 20q0 70 -88 70h-200q-100 0 -113 -90l-56 -400q-2 -12 -2 -23zM355 1100 l222 300h240l138 -300h-170l-102 200l-158 -200h-170z" />
<glyph unicode="&#xf5;" d="M137 231q0 32 5 69l56 400q43 300 343 300h200q262 0 262 -230q0 -32 -5 -70l-56 -400q-42 -300 -342 -300h-200q-263 0 -263 231zM285 1100q35 250 225 250q100 0 173 -50t163 -50q70 0 84 100h130q-35 -250 -225 -250q-100 0 -173 50t-163 50q-70 0 -84 -100h-130z M340 277q0 -77 88 -77h200q100 0 114 100l56 400q1 10 1 20q0 70 -88 70h-200q-100 0 -113 -90l-56 -400q-2 -12 -2 -23z" />
<glyph unicode="&#xf6;" d="M137 231q0 32 5 69l56 400q43 300 343 300h200q262 0 262 -230q0 -32 -5 -70l-56 -400q-42 -300 -342 -300h-200q-263 0 -263 231zM340 277q0 -77 88 -77h200q100 0 114 100l56 400q1 10 1 20q0 70 -88 70h-200q-100 0 -113 -90l-56 -400q-2 -12 -2 -23zM355 1100l28 200 h200l-28 -200h-200zM755 1100l28 200h200l-28 -200h-200z" />
<glyph unicode="&#xf7;" d="M184 600l28 200h800l-28 -200h-800zM428 200l28 200h200l-28 -200h-200zM541 1000l28 200h200l-28 -200h-200z" />
<glyph unicode="&#xf8;" d="M137 230q0 33 5 70l56 400q43 300 343 300h185l93 200h150l-101 -218q135 -47 135 -212q0 -33 -5 -70l-56 -400q-42 -300 -342 -300h-186l-92 -200h-150l101 218q-136 47 -136 212zM340 277q0 -41 24 -60l265 573h-118q-100 0 -113 -90l-56 -400q-2 -12 -2 -23zM507 200 h121q100 0 114 100l56 400q2 11 2 20q0 38 -27 55z" />
<glyph unicode="&#xf9;" d="M143 269q0 38 6 81l92 650h200l-92 -650q-3 -18 -3 -35q0 -115 132 -115q150 0 257 50l106 750h200l-141 -1000h-200l14 100q-114 -100 -264 -100q-307 0 -307 269zM497 1400h210l48 -300h-160z" />
<glyph unicode="&#xfa;" d="M143 269q0 38 6 81l92 650h200l-92 -650q-3 -18 -3 -35q0 -115 132 -115q150 0 257 50l106 750h200l-141 -1000h-200l14 100q-114 -100 -264 -100q-307 0 -307 269zM555 1100l132 300h210l-182 -300h-160z" />
<glyph unicode="&#xfb;" d="M143 269q0 38 6 81l92 650h200l-92 -650q-3 -18 -3 -35q0 -115 132 -115q150 0 257 50l106 750h200l-141 -1000h-200l14 100q-114 -100 -264 -100q-307 0 -307 269zM355 1100l222 300h240l138 -300h-170l-102 200l-158 -200h-170z" />
<glyph unicode="&#xfc;" d="M143 269q0 38 6 81l92 650h200l-92 -650q-3 -18 -3 -35q0 -115 132 -115q150 0 257 50l106 750h200l-141 -1000h-200l14 100q-114 -100 -264 -100q-307 0 -307 269zM355 1100l28 200h200l-28 -200h-200zM755 1100l28 200h200l-28 -200h-200z" />
<glyph unicode="&#xfd;" d="M143 269q0 38 6 81l92 650h200l-92 -650q-3 -18 -3 -35q0 -115 132 -115q150 0 257 50l106 750h200l-141 -1000q-56 -400 -456 -400h-300l28 200h300q200 0 228 200l14 100q-114 -100 -264 -100q-307 0 -307 269zM555 1100l132 300h210l-182 -300h-160z" />
<glyph unicode="&#xfe;" d="M44 -400l253 1800h200l-68 -480q52 80 212 80h100q262 0 262 -230q0 -32 -5 -70l-56 -400q-42 -300 -342 -300h-100q-160 0 -189 80l-67 -480h-200zM335 250q33 -50 193 -50h100q100 0 114 100l56 400q2 12 2 23q0 77 -88 77h-100q-160 0 -207 -50z" />
<glyph unicode="&#xff;" d="M143 269q0 38 6 81l92 650h200l-92 -650q-3 -18 -3 -35q0 -115 132 -115q150 0 257 50l106 750h200l-141 -1000q-56 -400 -456 -400h-300l28 200h300q200 0 228 200l14 100q-114 -100 -264 -100q-307 0 -307 269zM355 1100l28 200h200l-28 -200h-200zM755 1100l28 200 h200l-28 -200h-200z" />
<glyph unicode="&#x152;" horiz-adv-x="1700" d="M143 269q0 38 6 81l99 700q49 350 399 350h200q138 0 187 -92l13 92h750l-28 -200h-550l-57 -400h550l-28 -200h-550l-56 -400h550l-28 -200h-750l13 91q-75 -91 -223 -91h-190q-307 0 -307 269zM346 315q0 -115 132 -115h190q210 0 224 100l113 800q1 7 1 13 q0 87 -187 87h-200q-150 0 -171 -150l-99 -700q-3 -18 -3 -35z" />
<glyph unicode="&#x153;" horiz-adv-x="1500" d="M143 269q0 38 6 81l42 300q50 350 400 350q250 0 283 -116q78 116 267 116h50q306 0 306 -268q0 -38 -6 -82l-32 -230h-550l-17 -120q-2 -12 -2 -23q0 -77 88 -77h400l-28 -200h-400q-139 0 -184 115q-66 -115 -316 -115q-307 0 -307 269zM346 315q0 -115 132 -115 q200 0 214 100l56 400q1 7 1 13q0 87 -187 87q-150 0 -171 -150l-42 -300q-3 -18 -3 -35zM932 580h350l9 70q3 18 3 35q0 115 -132 115h-50q-150 0 -171 -150z" />
<glyph unicode="&#x178;" d="M197 1400h220l195 -600l365 600h220l-513 -800l-84 -600h-200l84 600zM411 1500l28 200h200l-28 -200h-200zM811 1500l28 200h200l-28 -200h-200z" />
<glyph unicode="&#x2c6;" horiz-adv-x="800" d="M297 1400h170l102 -200l158 200h170l-222 -300h-240z" />
<glyph unicode="&#x2dc;" horiz-adv-x="800" d="M255 1100l142 300h200l-142 -300h-200zM555 1100l142 300h200l-142 -300h-200z" />
<glyph unicode="&#x2000;" horiz-adv-x="955" />
<glyph unicode="&#x2001;" horiz-adv-x="1910" />
<glyph unicode="&#x2002;" horiz-adv-x="955" />
<glyph unicode="&#x2003;" horiz-adv-x="1910" />
<glyph unicode="&#x2004;" horiz-adv-x="636" />
<glyph unicode="&#x2005;" horiz-adv-x="477" />
<glyph unicode="&#x2006;" horiz-adv-x="318" />
<glyph unicode="&#x2007;" horiz-adv-x="318" />
<glyph unicode="&#x2008;" horiz-adv-x="238" />
<glyph unicode="&#x2009;" horiz-adv-x="382" />
<glyph unicode="&#x200a;" horiz-adv-x="106" />
<glyph unicode="&#x2010;" horiz-adv-x="800" d="M184 600l28 200h600l-28 -200h-600z" />
<glyph unicode="&#x2011;" horiz-adv-x="800" d="M184 600l28 200h600l-28 -200h-600z" />
<glyph unicode="&#x2012;" horiz-adv-x="800" d="M184 600l28 200h600l-28 -200h-600z" />
<glyph unicode="&#x2013;" horiz-adv-x="800" d="M184 600l28 200h600l-28 -200h-600z" />
<glyph unicode="&#x2014;" d="M184 600l28 200h800l-28 -200h-800z" />
<glyph unicode="&#x2018;" horiz-adv-x="500" d="M297 1400h200l58 -300h-200z" />
<glyph unicode="&#x2019;" horiz-adv-x="500" d="M255 1100l142 300h200l-142 -300h-200z" />
<glyph unicode="&#x201a;" horiz-adv-x="500" d="M86 -100l142 300h200l-142 -300h-200z" />
<glyph unicode="&#x201c;" horiz-adv-x="800" d="M297 1400h200l58 -300h-200zM597 1400h200l58 -300h-200z" />
<glyph unicode="&#x201d;" horiz-adv-x="800" d="M255 1100l142 300h200l-142 -300h-200zM555 1100l142 300h200l-142 -300h-200z" />
<glyph unicode="&#x201e;" horiz-adv-x="800" d="M86 -100l142 300h200l-142 -300h-200zM386 -100l142 300h200l-142 -300h-200z" />
<glyph unicode="&#x2022;" horiz-adv-x="500" d="M184 600l42 300h300l-42 -300h-300z" />
<glyph unicode="&#x2026;" horiz-adv-x="1200" d="M100 0l28 200h200l-28 -200h-200zM500 0l28 200h200l-28 -200h-200zM900 0l28 200h200l-28 -200h-200z" />
<glyph unicode="&#x202f;" horiz-adv-x="382" />
<glyph unicode="&#x2039;" horiz-adv-x="700" d="M191 650l344 450h220l-344 -450l217 -450h-220z" />
<glyph unicode="&#x203a;" horiz-adv-x="700" d="M128 200l343 450l-216 450h220l216 -450l-343 -450h-220z" />
<glyph unicode="&#x205f;" horiz-adv-x="477" />
<glyph unicode="&#x20ac;" horiz-adv-x="1100" d="M163 450l24 170h150l23 160h-150l24 170h150l14 100q49 350 399 350h400l-28 -200h-400q-150 0 -171 -150l-14 -100h475l-79 -170h-420l-23 -160h380l-80 -170h-324l-14 -100q-3 -18 -3 -35q0 -115 132 -115h400l-28 -200h-400q-307 0 -307 269q0 38 6 81l14 100h-150z " />
<glyph unicode="&#x2122;" horiz-adv-x="1450" d="M276 1250l21 150h450l-21 -150h-150l-64 -450h-150l64 450h-150zM762 800l85 600h200l101 -350l199 350h200l-85 -600h-150l50 350l-200 -350h-100l-100 350l-50 -350h-150z" />
<glyph unicode="&#x25fc;" d="M0 0v1000h1000v-1000h-1000z" />
</font>
</defs>
</svg>
