<?xml version="1.0" standalone="no"?>
<!DOCTYPE svg PUBLIC "-//W3C//DTD SVG 1.1//EN" "http://www.w3.org/Graphics/SVG/1.1/DTD/svg11.dtd" >
<svg xmlns="http://www.w3.org/2000/svg" xmlns:xlink="http://www.w3.org/1999/xlink" version="1.1">
<metadata></metadata>
<defs>
<font id="aero_matics_lightitalic" horiz-adv-x="1000" >
<font-face units-per-em="2048" ascent="1638" descent="-410" />
<missing-glyph horiz-adv-x="400" />
<glyph horiz-adv-x="0" />
<glyph horiz-adv-x="682" />
<glyph unicode=" "  horiz-adv-x="400" />
<glyph unicode="&#x09;" horiz-adv-x="400" />
<glyph unicode="&#xa0;" horiz-adv-x="400" />
<glyph unicode="!" horiz-adv-x="300" d="M100 0l28 200h100l-28 -200h-100zM156 400l141 1000h100l-141 -1000h-100z" />
<glyph unicode="&#x22;" horiz-adv-x="600" d="M255 1100l142 300h100l-142 -300h-100zM455 1100l142 300h100l-142 -300h-100z" />
<glyph unicode="#" horiz-adv-x="1300" d="M149 350l14 100h185l221 500h-235l14 100h265l154 350h100l-154 -350h400l154 350h100l-154 -350h135l-14 -100h-165l-221 -500h215l-14 -100h-245l-154 -350h-100l154 350h-400l-154 -350h-100l154 350h-155zM448 450h400l221 500h-400z" />
<glyph unicode="$" horiz-adv-x="1100" d="M100 0l14 100h400l77 550h-100q-262 0 -262 230q0 32 5 70l21 150q42 300 342 300h100l28 200h100l-28 -200h400l-14 -100h-400l-78 -550h100q263 0 263 -231q0 -32 -5 -69l-21 -150q-42 -300 -342 -300h-100l-28 -200h-100l28 200h-400zM330 903q0 -153 175 -153h100 l78 550h-100q-200 0 -228 -200l-21 -150q-4 -25 -4 -47zM614 100h100q200 0 228 200l21 150q3 25 3 46q0 154 -175 154h-100z" />
<glyph unicode="%" horiz-adv-x="1800" d="M221 831q0 32 5 69l29 200q42 300 342 300h100q263 0 263 -231q0 -32 -5 -69l-29 -200q-42 -300 -342 -300h-100q-263 0 -263 231zM323 854q0 -154 175 -154h100q200 0 228 200l29 200q3 25 3 46q0 154 -175 154h-100q-200 0 -228 -200l-29 -200q-3 -25 -3 -46zM500 0 l887 1400h110l-887 -1400h-110zM1037 231q0 32 5 69l28 200q42 300 342 300h100q263 0 263 -231q0 -32 -5 -69l-28 -200q-42 -300 -342 -300h-100q-263 0 -263 231zM1139 254q0 -154 175 -154h100q200 0 228 200l28 200q3 25 3 46q0 154 -175 154h-100q-200 0 -228 -200 l-28 -200q-3 -25 -3 -46z" />
<glyph unicode="&#x26;" horiz-adv-x="1100" d="M137 231q0 32 5 69l21 150q31 220 205 250q-139 25 -139 185q0 30 5 65l21 150q42 300 342 300h500l-14 -100h-500q-200 0 -228 -200l-21 -150q-4 -25 -4 -47q0 -153 175 -153h400l29 200h100l-29 -200h100l-14 -100h-100l-91 -650h-500q-263 0 -263 231zM239 254 q0 -154 175 -154h400l77 550h-400q-200 0 -228 -200l-21 -150q-3 -25 -3 -46z" />
<glyph unicode="'" horiz-adv-x="400" d="M255 1100l142 300h100l-142 -300h-100z" />
<glyph unicode="(" horiz-adv-x="600" d="M181 468q0 113 17 232q71 500 407 900h120q-356 -400 -427 -900q-16 -111 -16 -218q0 -371 190 -682h-120q-171 305 -171 668z" />
<glyph unicode=")" horiz-adv-x="600" d="M72 -200q356 400 426 900q16 113 16 220q0 370 -189 680h120q170 -304 170 -665q0 -115 -17 -235q-70 -500 -406 -900h-120z" />
<glyph unicode="*" horiz-adv-x="700" d="M260 1140l24 100l187 -20l26 180h100l-26 -180l193 20l-4 -100l-172 -17l94 -183l-96 -40l-86 170l-134 -170l-84 40l145 183z" />
<glyph unicode="+" horiz-adv-x="900" d="M191 650l14 100h300l43 300h100l-43 -300h300l-14 -100h-300l-42 -300h-100l42 300h-300z" />
<glyph unicode="," horiz-adv-x="400" d="M86 -100l142 300h100l-142 -300h-100z" />
<glyph unicode="-" horiz-adv-x="700" d="M191 650l14 100h500l-14 -100h-500z" />
<glyph unicode="." horiz-adv-x="300" d="M100 0l28 200h100l-28 -200h-100z" />
<glyph unicode="/" horiz-adv-x="820" d="M72 -200l773 1800h100l-773 -1800h-100z" />
<glyph unicode="0" horiz-adv-x="1150" d="M137 231q0 32 5 69l113 800q42 300 342 300h350q263 0 263 -231q0 -32 -5 -69l-113 -800q-42 -300 -342 -300h-350q-263 0 -263 231zM239 254q0 -154 175 -154h350q200 0 228 200l83 590l-819 -490l-14 -100q-3 -25 -3 -46zM272 510l819 490l14 100q3 25 3 46 q0 154 -175 154h-350q-200 0 -228 -200z" />
<glyph unicode="1" horiz-adv-x="500" d="M283 1300l14 100h300l-197 -1400h-100l183 1300h-200z" />
<glyph unicode="2" horiz-adv-x="1100" d="M100 0l63 450q42 300 342 300h300q200 0 229 200l21 150q3 25 3 46q0 154 -175 154h-600l14 100h600q263 0 263 -231q0 -32 -5 -69l-21 -150q-43 -300 -343 -300h-300q-200 0 -228 -200l-49 -350h800l-14 -100h-900z" />
<glyph unicode="3" d="M100 0l14 100h500q200 0 228 200l21 150q3 25 3 46q0 154 -175 154h-500l14 100h500q200 0 229 200l21 150q3 25 3 46q0 154 -175 154h-500l14 100h500q263 0 263 -231q0 -32 -5 -69l-21 -150q-31 -220 -206 -250q140 -25 140 -186q0 -29 -5 -64l-21 -150 q-42 -300 -342 -300h-500z" />
<glyph unicode="4" horiz-adv-x="1100" d="M170 500l14 100l503 800h110l-503 -800h690l113 800h100l-197 -1400h-100l70 500h-800z" />
<glyph unicode="5" horiz-adv-x="1050" d="M100 0l14 100h550q200 0 228 200l28 200q3 25 3 46q0 154 -175 154h-550l99 700h850l-14 -100h-750l-71 -500h450q263 0 263 -231q0 -32 -5 -69l-28 -200q-42 -300 -342 -300h-550z" />
<glyph unicode="6" horiz-adv-x="1100" d="M137 231q0 32 5 69l99 700q56 400 456 400h400l-14 -100h-400q-300 0 -342 -300l-29 -200h500q263 0 263 -231q0 -32 -5 -69l-28 -200q-42 -300 -342 -300h-300q-263 0 -263 231zM239 254q0 -154 175 -154h300q200 0 228 200l28 200q3 25 3 46q0 154 -175 154h-500 l-56 -400q-3 -25 -3 -46z" />
<glyph unicode="7" horiz-adv-x="1100" d="M200 0l873 1300h-790l14 100h900l-14 -100l-873 -1300h-110z" />
<glyph unicode="8" horiz-adv-x="1100" d="M137 231q0 32 5 69l21 150q31 220 205 250q-139 25 -139 185q0 30 5 65l21 150q42 300 342 300h300q263 0 263 -231q0 -32 -5 -69l-21 -150q-31 -220 -206 -250q140 -25 140 -186q0 -29 -5 -64l-21 -150q-42 -300 -342 -300h-300q-263 0 -263 231zM239 254 q0 -154 175 -154h300q200 0 228 200l21 150q3 25 3 46q0 154 -175 154h-300q-200 0 -228 -200l-21 -150q-3 -25 -3 -46zM330 903q0 -153 175 -153h300q200 0 229 200l21 150q3 25 3 46q0 154 -175 154h-300q-200 0 -228 -200l-21 -150q-4 -25 -4 -47z" />
<glyph unicode="9" horiz-adv-x="1100" d="M200 0l14 100h400q300 0 342 300l28 200h-500q-263 0 -263 231q0 32 5 69l29 200q42 300 342 300h300q263 0 263 -231q0 -32 -5 -69l-99 -700q-56 -400 -456 -400h-400zM323 854q0 -154 175 -154h500l57 400q3 25 3 46q0 154 -175 154h-300q-200 0 -228 -200l-29 -200 q-3 -25 -3 -46z" />
<glyph unicode=":" horiz-adv-x="300" d="M100 0l28 200h100l-28 -200h-100zM212 800l29 200h100l-29 -200h-100z" />
<glyph unicode=";" horiz-adv-x="400" d="M86 -100l142 300h100l-142 -300h-100zM312 800l29 200h100l-29 -200h-100z" />
<glyph unicode="&#x3c;" horiz-adv-x="900" d="M191 650l14 100l750 350l-14 -100l-643 -300l558 -300l-14 -100z" />
<glyph unicode="=" horiz-adv-x="700" d="M170 500l14 100h500l-14 -100h-500zM212 800l14 100h500l-14 -100h-500z" />
<glyph unicode="&#x3e;" horiz-adv-x="900" d="M142 300l14 100l642 300l-557 300l14 100l650 -350l-14 -100z" />
<glyph unicode="?" horiz-adv-x="1100" d="M283 1300l14 100h600q263 0 263 -231q0 -32 -5 -69l-21 -150q-43 -300 -343 -300h-200l-35 -250h-100l49 350h300q200 0 229 200l21 150q3 25 3 46q0 154 -175 154h-600zM400 0l28 200h100l-28 -200h-100z" />
<glyph unicode="@" horiz-adv-x="1600" d="M147 285q0 54 9 115l85 600q70 500 570 500h400q439 0 439 -385q0 -54 -9 -115l-71 -500q-42 -300 -242 -300q-152 0 -173 115q-152 -115 -327 -115h-100q-263 0 -263 231q0 32 5 69l56 400q43 300 343 300h100q200 0 286 -100l14 100h100l-113 -800q-2 -12 -2 -23 q0 -77 88 -77q100 0 128 200l71 500q7 49 7 92q0 308 -351 308h-400q-400 0 -456 -400l-85 -600q-7 -49 -7 -92q0 -308 351 -308h700l-14 -100h-700q-439 0 -439 385zM567 454q0 -154 175 -154h100q200 0 314 100l85 600q-86 100 -286 100h-100q-200 0 -229 -200l-56 -400 q-3 -25 -3 -46z" />
<glyph unicode="A" d="M0 0l617 1400h160l223 -1400h-100l-67 400h-554l-179 -400h-100zM324 500h492l-133 800z" />
<glyph unicode="B" horiz-adv-x="1100" d="M100 0l197 1400h600q263 0 263 -231q0 -32 -5 -69l-21 -150q-31 -220 -206 -250q140 -25 140 -186q0 -29 -5 -64l-21 -150q-42 -300 -342 -300h-600zM214 100h500q200 0 228 200l21 150q3 25 3 46q0 154 -175 154h-500zM305 750h500q200 0 229 200l21 150q3 25 3 46 q0 154 -175 154h-500z" />
<glyph unicode="C" d="M137 231q0 32 5 69l113 800q42 300 342 300h500l-14 -100h-500q-200 0 -228 -200l-113 -800q-3 -25 -3 -46q0 -154 175 -154h500l-14 -100h-500q-263 0 -263 231z" />
<glyph unicode="D" horiz-adv-x="1100" d="M100 0l197 1400h600q263 0 263 -231q0 -32 -5 -69l-113 -800q-42 -300 -342 -300h-600zM214 100h500q200 0 228 200l113 800q3 25 3 46q0 154 -175 154h-500z" />
<glyph unicode="E" d="M100 0l197 1400h800l-14 -100h-700l-78 -550h700l-14 -100h-700l-77 -550h700l-14 -100h-800z" />
<glyph unicode="F" d="M100 0l197 1400h800l-14 -100h-700l-78 -550h700l-14 -100h-700l-91 -650h-100z" />
<glyph unicode="G" horiz-adv-x="1100" d="M137 231q0 32 5 69l113 800q42 300 342 300h600l-14 -100h-600q-200 0 -228 -200l-113 -800q-3 -25 -3 -46q0 -154 175 -154h300q200 0 228 200l49 350h-400l14 100h500l-63 -450q-42 -300 -342 -300h-300q-263 0 -263 231z" />
<glyph unicode="H" horiz-adv-x="1100" d="M100 0l197 1400h100l-92 -650h700l92 650h100l-197 -1400h-100l91 650h-700l-91 -650h-100z" />
<glyph unicode="I" horiz-adv-x="300" d="M100 0l197 1400h100l-197 -1400h-100z" />
<glyph unicode="J" horiz-adv-x="700" d="M100 0l14 100h200q200 0 228 200l155 1100h100l-155 -1100q-42 -300 -342 -300h-200z" />
<glyph unicode="K" horiz-adv-x="1050" d="M100 0l197 1400h100l-92 -650h90l682 650h120l-719 -700l522 -700h-120l-499 650h-90l-91 -650h-100z" />
<glyph unicode="L" d="M100 0l197 1400h100l-183 -1300h700l-14 -100h-800z" />
<glyph unicode="M" horiz-adv-x="1400" d="M100 0l197 1400h170l247 -1300l613 1300h170l-197 -1400h-100l183 1300l-603 -1300h-160l-237 1300l-183 -1300h-100z" />
<glyph unicode="N" horiz-adv-x="1100" d="M100 0l197 1400h100l531 -1200l169 1200h100l-197 -1400h-100l-531 1200l-169 -1200h-100z" />
<glyph unicode="O" horiz-adv-x="1150" d="M137 231q0 32 5 69l113 800q42 300 342 300h350q263 0 263 -231q0 -32 -5 -69l-113 -800q-42 -300 -342 -300h-350q-263 0 -263 231zM239 254q0 -154 175 -154h350q200 0 228 200l113 800q3 25 3 46q0 154 -175 154h-350q-200 0 -228 -200l-113 -800q-3 -25 -3 -46z" />
<glyph unicode="P" horiz-adv-x="1100" d="M100 0l197 1400h600q263 0 263 -231q0 -32 -5 -69l-21 -150q-43 -300 -343 -300h-500l-91 -650h-100zM305 750h500q200 0 229 200l21 150q3 25 3 46q0 154 -175 154h-500z" />
<glyph unicode="Q" horiz-adv-x="1150" d="M137 231q0 32 5 69l113 800q42 300 342 300h350q263 0 263 -231q0 -32 -5 -69l-113 -800q-41 -290 -322 -300l52 -200h-100l-52 200h-270q-263 0 -263 231zM239 254q0 -154 175 -154h230l-52 200h100l52 -200h20q200 0 228 200l113 800q3 25 3 46q0 154 -175 154h-350 q-200 0 -228 -200l-113 -800q-3 -25 -3 -46z" />
<glyph unicode="R" horiz-adv-x="1100" d="M100 0l197 1400h600q263 0 263 -231q0 -32 -5 -69l-21 -150q-38 -265 -276 -296l142 -654h-100l-141 650h-468l-91 -650h-100zM305 750h500q200 0 229 200l21 150q3 25 3 46q0 154 -175 154h-500z" />
<glyph unicode="S" horiz-adv-x="1100" d="M100 0l14 100h600q200 0 228 200l21 150q3 25 3 46q0 154 -175 154h-300q-262 0 -262 230q0 32 5 70l21 150q42 300 342 300h600l-14 -100h-600q-200 0 -228 -200l-21 -150q-4 -25 -4 -47q0 -153 175 -153h300q263 0 263 -231q0 -32 -5 -69l-21 -150q-42 -300 -342 -300 h-600z" />
<glyph unicode="T" horiz-adv-x="1100" d="M283 1300l14 100h900l-14 -100h-400l-183 -1300h-100l183 1300h-400z" />
<glyph unicode="U" horiz-adv-x="1100" d="M137 231q0 32 5 69l155 1100h100l-155 -1100q-3 -25 -3 -46q0 -154 175 -154h300q200 0 228 200l155 1100h100l-155 -1100q-42 -300 -342 -300h-300q-263 0 -263 231z" />
<glyph unicode="V" d="M197 1400h100l217 -1300l583 1300h100l-617 -1400h-160z" />
<glyph unicode="W" horiz-adv-x="1500" d="M197 1400h100l117 -1300l483 1300h100l117 -1300l483 1300h100l-517 -1400h-160l-104 1181l-436 -1181h-160z" />
<glyph unicode="X" horiz-adv-x="1200" d="M100 0l533 700l-336 700h130l286 -596l454 596h130l-534 -700l337 -700h-130l-286 595l-454 -595h-130z" />
<glyph unicode="Y" d="M197 1400h110l291 -700l489 700h110l-563 -800l-84 -600h-100l84 600z" />
<glyph unicode="Z" horiz-adv-x="1100" d="M100 0l14 100l949 1200h-780l14 100h900l-14 -100l-949 -1200h780l-14 -100h-900z" />
<glyph unicode="[" horiz-adv-x="500" d="M72 -200l253 1800h300l-14 -100h-200l-225 -1600h200l-14 -100h-300z" />
<glyph unicode="\" horiz-adv-x="820" d="M325 1600h100l267 -1800h-100z" />
<glyph unicode="]" horiz-adv-x="500" d="M72 -200l14 100h200l225 1600h-200l14 100h300l-253 -1800h-300z" />
<glyph unicode="^" d="M198 700l449 700h100l251 -700h-100l-215 600l-385 -600h-100z" />
<glyph unicode="_" horiz-adv-x="700" d="M-56 -400l14 100h700l-14 -100h-700z" />
<glyph unicode="`" horiz-adv-x="400" d="M297 1400h110l48 -300h-110z" />
<glyph unicode="a" d="M137 231q0 32 5 69q42 300 342 300h100q200 0 286 -100l14 100q5 37 5 69q0 231 -263 231h-300l15 100h300q350 0 350 -306q0 -44 -7 -94l-84 -600h-70l-16 100q-114 -100 -314 -100h-100q-263 0 -263 231zM239 254q0 -154 175 -154h100q200 0 314 100l28 200 q-86 100 -286 100h-100q-200 0 -228 -200q-3 -25 -3 -46z" />
<glyph unicode="b" d="M100 0l197 1400h100l-71 -500q115 100 315 100h100q262 0 262 -230q0 -32 -5 -70l-56 -400q-42 -300 -342 -300h-100q-200 0 -286 100l-44 -100h-70zM228 200q86 -100 286 -100h100q200 0 228 200l56 400q3 25 3 46q0 154 -175 154h-100q-200 0 -314 -100z" />
<glyph unicode="c" horiz-adv-x="900" d="M137 231q0 32 5 69l56 400q43 300 343 300h400l-15 -100h-400q-200 0 -228 -200l-56 -400q-3 -25 -3 -46q0 -154 175 -154h400l-14 -100h-400q-263 0 -263 231z" />
<glyph unicode="d" d="M137 231q0 32 5 69l56 400q43 300 343 300h100q200 0 285 -100l71 500h100l-197 -1400h-70l-16 100q-114 -100 -314 -100h-100q-263 0 -263 231zM239 254q0 -154 175 -154h100q200 0 314 100l84 600q-86 100 -286 100h-100q-200 0 -228 -200l-56 -400q-3 -25 -3 -46z" />
<glyph unicode="e" d="M137 231q0 32 5 69l56 400q43 300 343 300h200q262 0 262 -230q0 -32 -5 -70l-35 -250h-700l-21 -150q-3 -25 -3 -46q0 -154 175 -154h450l-14 -100h-450q-263 0 -263 231zM277 550h600l21 150q3 25 3 46q0 154 -175 154h-200q-200 0 -228 -200z" />
<glyph unicode="f" horiz-adv-x="800" d="M219 850l15 100h150l21 150q42 300 342 300h150l-14 -100h-150q-200 0 -228 -200l-21 -150h350l-15 -100h-350l-119 -850h-100l119 850h-150z" />
<glyph unicode="g" d="M137 231q0 32 5 69l56 400q43 300 343 300h100q200 0 285 -100l45 100h70l-141 -1000q-56 -400 -456 -400h-300l14 100h300q300 0 342 300l14 100q-114 -100 -314 -100h-100q-263 0 -263 231zM239 254q0 -154 175 -154h100q200 0 314 100l84 600q-86 100 -286 100h-100 q-200 0 -228 -200l-56 -400q-3 -25 -3 -46z" />
<glyph unicode="h" d="M100 0l197 1400h100l-71 -500q115 100 315 100h100q262 0 262 -230q0 -32 -5 -70l-98 -700h-100l98 700q3 25 3 46q0 154 -175 154h-100q-200 0 -314 -100l-112 -800h-100z" />
<glyph unicode="i" horiz-adv-x="300" d="M100 0l141 1000h100l-141 -1000h-100zM269 1200l28 200h100l-28 -200h-100z" />
<glyph unicode="j" horiz-adv-x="300" d="M-256 -400l14 100h100q200 0 228 200l155 1100h100l-155 -1100q-42 -300 -342 -300h-100zM269 1200l28 200h100l-28 -200h-100z" />
<glyph unicode="k" horiz-adv-x="950" d="M100 0l197 1400h100l-120 -850h100l534 450h130l-581 -500l440 -500h-130l-407 450h-100l-63 -450h-100z" />
<glyph unicode="l" horiz-adv-x="300" d="M100 0l197 1400h100l-197 -1400h-100z" />
<glyph unicode="m" horiz-adv-x="1500" d="M100 0l141 1000h70l15 -100q115 100 315 100q173 0 231 -100q143 100 319 100q312 0 312 -238q0 -29 -5 -62l-98 -700h-100l98 700q3 22 3 42q0 158 -196 158q-221 0 -293 -100l-112 -800h-100l100 710q2 18 2 35q0 155 -176 155q-200 0 -314 -100l-112 -800h-100z" />
<glyph unicode="n" d="M100 0l141 1000h70l15 -100q115 100 315 100h100q262 0 262 -230q0 -32 -5 -70l-98 -700h-100l98 700q3 25 3 46q0 154 -175 154h-100q-200 0 -314 -100l-112 -800h-100z" />
<glyph unicode="o" d="M137 231q0 32 5 69l56 400q43 300 343 300h200q262 0 262 -230q0 -32 -5 -70l-56 -400q-42 -300 -342 -300h-200q-263 0 -263 231zM239 254q0 -154 175 -154h200q200 0 228 200l56 400q3 25 3 46q0 154 -175 154h-200q-200 0 -228 -200l-56 -400q-3 -25 -3 -46z" />
<glyph unicode="p" d="M44 -400l197 1400h70l15 -100q115 100 315 100h100q262 0 262 -230q0 -32 -5 -70l-56 -400q-42 -300 -342 -300h-100q-200 0 -286 100l-70 -500h-100zM228 200q86 -100 286 -100h100q200 0 228 200l56 400q3 25 3 46q0 154 -175 154h-100q-200 0 -314 -100z" />
<glyph unicode="q" d="M137 231q0 32 5 69l56 400q43 300 343 300h100q200 0 285 -100l45 100h70l-197 -1400h-100l70 500q-114 -100 -314 -100h-100q-263 0 -263 231zM239 254q0 -154 175 -154h100q200 0 314 100l84 600q-86 100 -286 100h-100q-200 0 -228 -200l-56 -400q-3 -25 -3 -46z" />
<glyph unicode="r" horiz-adv-x="550" d="M100 0l141 1000h70l15 -100q115 100 315 100l-15 -100q-200 0 -314 -100l-112 -800h-100z" />
<glyph unicode="s" horiz-adv-x="950" d="M100 0l14 100h450q200 0 223 160l5 40q2 17 2 31q0 129 -179 129h-150q-270 0 -270 195q0 21 3 45l6 40q37 260 337 260h450l-15 -100h-450q-200 0 -222 -160l-6 -40q-2 -12 -2 -23q0 -117 183 -117h150q267 0 267 -206q0 -25 -4 -54l-5 -40q-37 -260 -337 -260h-450z " />
<glyph unicode="t" horiz-adv-x="800" d="M226 900l15 100h150l42 300l114 100l-56 -400h350l-15 -100h-350l-84 -600q-3 -25 -3 -46q0 -154 175 -154h150l-14 -100h-150q-263 0 -263 231q0 32 5 69l84 600h-150z" />
<glyph unicode="u" d="M137 231q0 32 5 69l99 700h100l-99 -700q-3 -25 -3 -46q0 -154 175 -154h100q200 0 314 100l113 800h100l-141 -1000h-70l-16 100q-114 -100 -314 -100h-100q-263 0 -263 231z" />
<glyph unicode="v" horiz-adv-x="900" d="M191 1000h100l173 -900l427 900h100l-471 -1000h-140z" />
<glyph unicode="w" horiz-adv-x="1400" d="M191 1000h100l123 -900l377 900h100l123 -900l377 900h100l-421 -1000h-140l-113 832l-347 -832h-140z" />
<glyph unicode="x" d="M100 0l410 500l-269 500h120l222 -412l338 412h120l-411 -500l270 -500h-120l-222 412l-338 -412h-120z" />
<glyph unicode="y" d="M137 231q0 32 5 69l99 700h100l-99 -700q-3 -25 -3 -46q0 -154 175 -154h100q200 0 314 100l113 800h100l-155 -1100q-42 -300 -342 -300h-400l14 100h400q200 0 228 200l28 200q-114 -100 -314 -100h-100q-263 0 -263 231z" />
<glyph unicode="z" d="M100 0l14 100l782 800h-670l15 100h800l-15 -100l-782 -800h670l-14 -100h-800z" />
<glyph unicode="{" horiz-adv-x="700" d="M191 650l14 100q200 0 229 200l49 350q42 300 342 300l-14 -100q-200 0 -228 -200l-49 -350q-31 -220 -206 -250q140 -25 140 -186q0 -29 -5 -64l-49 -350q-3 -25 -3 -46q0 -154 175 -154l-14 -100q-263 0 -263 231q0 32 5 69l49 350q3 25 3 46q0 154 -175 154z" />
<glyph unicode="|" horiz-adv-x="300" d="M72 -200l253 1800h100l-253 -1800h-100z" />
<glyph unicode="}" horiz-adv-x="700" d="M72 -200l14 100q200 0 228 200l49 350q31 220 205 250q-139 25 -139 185q0 30 5 65l49 350q3 25 3 46q0 154 -175 154l14 100q263 0 263 -231q0 -32 -5 -69l-49 -350q-4 -25 -4 -47q0 -153 175 -153l-14 -100q-200 0 -228 -200l-49 -350q-42 -300 -342 -300z" />
<glyph unicode="~" horiz-adv-x="1100" d="M170 500q42 300 292 300q130 0 206 -100t176 -100q140 0 168 200h100q-42 -300 -292 -300q-130 0 -206 100t-176 100q-140 0 -168 -200h-100z" />
<glyph unicode="&#xa1;" horiz-adv-x="300" d="M44 -400l140 1000h100l-140 -1000h-100zM212 800l29 200h100l-29 -200h-100z" />
<glyph unicode="&#xa2;" horiz-adv-x="900" d="M165 431q0 32 5 69l56 400q43 300 343 300h50l28 200h100l-28 -200h250l-14 -100h-250l-113 -800h250l-14 -100h-250l-28 -200h-100l28 200h-50q-263 0 -263 231zM267 454q0 -154 175 -154h50l113 800h-50q-200 0 -229 -200l-56 -400q-3 -25 -3 -46z" />
<glyph unicode="&#xa3;" horiz-adv-x="1100" d="M100 0l14 100h150l77 550h-150l14 100h150l36 250q56 400 456 400h350l-14 -100h-350q-300 0 -342 -300l-36 -250h650l-14 -100h-650l-77 -550h650l-14 -100h-900z" />
<glyph unicode="&#xa5;" d="M128 200l14 100h350l28 200h-350l14 100h350l-337 800h110l291 -700l489 700h110l-563 -800h350l-14 -100h-350l-28 -200h350l-14 -100h-350l-28 -200h-100l28 200h-350z" />
<glyph unicode="&#xa6;" horiz-adv-x="300" d="M72 -200l112 800h100l-112 -800h-100zM212 800l113 800h100l-113 -800h-100z" />
<glyph unicode="&#xa8;" horiz-adv-x="600" d="M255 1100l28 200h100l-28 -200h-100zM555 1100l28 200h100l-28 -200h-100z" />
<glyph unicode="&#xa9;" horiz-adv-x="1395" d="M191 608q0 44 7 91q35 247 234.5 422t447.5 175q247 0 398 -175q122 -142 122 -331q0 -44 -7 -91q-35 -248 -234.5 -423t-446.5 -175q-248 0 -398 175q-123 142 -123 332zM283 614q0 -163 99 -278q124 -144 343 -144t383 144t195 363q6 44 6 85q0 163 -99 278 q-124 144 -343 144t-383 -144t-195 -363q-6 -44 -6 -85zM496 655q0 22 3 46q17 124 117.5 212t224.5 88t199 -88q62 -72 62 -168h-101q-5 55 -41 98q-50 58 -133 58t-150 -58.5t-78 -141.5q-2 -16 -2 -31q0 -63 40 -110q50 -59 133 -59t151 59q41 36 60 81h103 q-28 -86 -103 -152q-101 -88 -225 -88t-199 88q-61 71 -61 166z" />
<glyph unicode="&#xab;" horiz-adv-x="852" d="M191 650l344 450h120l-344 -450l217 -450h-120zM443 650l344 450h120l-344 -450l217 -450h-120z" />
<glyph unicode="&#xac;" horiz-adv-x="900" d="M191 650l14 100h700l-56 -400h-100l42 300h-600z" />
<glyph unicode="&#xad;" horiz-adv-x="700" d="M191 650l14 100h500l-14 -100h-500z" />
<glyph unicode="&#xae;" horiz-adv-x="1395" d="M191 608q0 44 7 91q35 247 234.5 422t447.5 175q247 0 398 -175q122 -142 122 -331q0 -44 -7 -91q-35 -248 -234.5 -423t-446.5 -175q-248 0 -398 175q-123 142 -123 332zM283 614q0 -163 99 -278q124 -144 343 -144t383 144t195 363q6 44 6 85q0 163 -99 278 q-124 144 -343 144t-383 -144t-195 -363q-6 -44 -6 -85zM499 377l89 633h302q189 0 189 -145q0 -17 -3 -36q-22 -156 -162 -185l98 -267h-102l-95 261h-188l-37 -261h-91zM639 729h211q120 0 135 100q1 8 1 16q0 75 -109 75h-211z" />
<glyph unicode="&#xb0;" horiz-adv-x="600" d="M267 1169q0 15 2 31q11 83 78 141.5t150 58.5t133 -58q41 -48 41 -113q0 -14 -2 -29q-12 -83 -78.5 -141.5t-149.5 -58.5t-133 59q-41 47 -41 110zM368 1185q0 -32 21 -55q25 -30 66 -30t74.5 29.5t39.5 70.5q1 7 1 13q0 33 -21 58q-25 29 -66 29t-75 -29.5t-39 -70.5 q-1 -8 -1 -15z" />
<glyph unicode="&#xb1;" horiz-adv-x="900" d="M100 0l14 100h700l-14 -100h-700zM191 650l14 100h300l43 300h100l-43 -300h300l-14 -100h-300l-42 -300h-100l42 300h-300z" />
<glyph unicode="&#xb4;" horiz-adv-x="400" d="M255 1100l132 300h110l-132 -300h-110z" />
<glyph unicode="&#xb5;" d="M37 -446l204 1446h100l-113 -800q86 -100 286 -100t314 100l113 800h100l-141 -1000h-100l14 100q-114 -100 -314 -100q-150 0 -288 84l-75 -530h-100z" />
<glyph unicode="&#xb6;" horiz-adv-x="1100" d="M234 906q0 44 7 94q56 400 456 400h500l-253 -1800h-100l239 1700h-200l-239 -1700h-100l140 1000h-100q-350 0 -350 306z" />
<glyph unicode="&#xb7;" horiz-adv-x="300" d="M184 600l28 200h100l-28 -200h-100z" />
<glyph unicode="&#xb8;" horiz-adv-x="550" d="M51 -350l11 80q76 -30 176 -30q90 0 100 70q1 4 1 8q0 62 -161 62l8 60q17 1 32 1q201 0 201 -112q0 -9 -1 -19q-21 -150 -191 -150q-100 0 -176 30z" />
<glyph unicode="&#xbb;" horiz-adv-x="852" d="M128 200l343 450l-216 450h120l216 -450l-343 -450h-120zM380 200l343 450l-216 450h120l216 -450l-343 -450h-120z" />
<glyph unicode="&#xbf;" horiz-adv-x="1100" d="M81 -169q0 32 5 69l21 150q42 300 342 300h200l35 250h100l-49 -350h-300q-200 0 -228 -200l-21 -150q-3 -25 -3 -46q0 -154 175 -154h600l-14 -100h-600q-263 0 -263 231zM712 800l29 200h100l-29 -200h-100z" />
<glyph unicode="&#xc0;" d="M0 0l617 1400h160l223 -1400h-100l-67 400h-554l-179 -400h-100zM324 500h492l-133 800zM620 1800h110l48 -300h-110z" />
<glyph unicode="&#xc1;" d="M0 0l617 1400h160l223 -1400h-100l-67 400h-554l-179 -400h-100zM324 500h492l-133 800zM644 1500l132 300h110l-132 -300h-110z" />
<glyph unicode="&#xc2;" d="M0 0l617 1400h160l223 -1400h-100l-67 400h-554l-179 -400h-100zM324 500h492l-133 800zM461 1500l222 300h140l138 -300h-120l-102 200l-158 -200h-120z" />
<glyph unicode="&#xc3;" d="M0 0l617 1400h160l223 -1400h-100l-67 400h-554l-179 -400h-100zM324 500h492l-133 800zM341 1500q35 250 225 250q130 0 184.5 -75t154.5 -75q90 0 111 150h100q-35 -250 -225 -250q-130 0 -184.5 75t-154.5 75q-90 0 -111 -150h-100z" />
<glyph unicode="&#xc4;" d="M0 0l617 1400h160l223 -1400h-100l-67 400h-554l-179 -400h-100zM324 500h492l-133 800zM511 1500l28 200h100l-28 -200h-100zM811 1500l28 200h100l-28 -200h-100z" />
<glyph unicode="&#xc5;" d="M0 0l617 1400h160l223 -1400h-100l-67 400h-554l-179 -400h-100zM324 500h492l-133 800zM537 1669q0 15 2 31q12 83 78.5 141.5t149.5 58.5t134 -58q40 -48 40 -111q0 -15 -2 -31q-12 -83 -78.5 -141.5t-149.5 -58.5t-133 59q-41 47 -41 110zM638 1685q0 -32 21 -55 q25 -30 66 -30t74.5 29.5t39.5 70.5q1 8 1 15q0 32 -20 56q-26 29 -67 29t-74.5 -29.5t-39.5 -70.5q-1 -8 -1 -15z" />
<glyph unicode="&#xc6;" horiz-adv-x="1600" d="M0 0l617 1400h1080l-14 -100h-600l-78 -550h600l-14 -100h-600l-77 -550h600l-14 -100h-700l56 400h-577l-179 -400h-100zM324 500h546l113 800h-300z" />
<glyph unicode="&#xc7;" d="M137 231q0 32 5 69l113 800q42 300 342 300h500l-14 -100h-500q-200 0 -228 -200l-113 -800q-3 -25 -3 -46q0 -154 175 -154h500l-14 -100h-500q-263 0 -263 231zM351 -350l11 80q76 -30 176 -30q90 0 100 70q1 4 1 8q0 62 -161 62l8 60q17 1 32 1q201 0 201 -112 q0 -9 -1 -19q-21 -150 -191 -150q-100 0 -176 30z" />
<glyph unicode="&#xc8;" d="M100 0l197 1400h800l-14 -100h-700l-78 -550h700l-14 -100h-700l-77 -550h700l-14 -100h-800zM620 1800h110l48 -300h-110z" />
<glyph unicode="&#xc9;" d="M100 0l197 1400h800l-14 -100h-700l-78 -550h700l-14 -100h-700l-77 -550h700l-14 -100h-800zM644 1500l132 300h110l-132 -300h-110z" />
<glyph unicode="&#xca;" d="M100 0l197 1400h800l-14 -100h-700l-78 -550h700l-14 -100h-700l-77 -550h700l-14 -100h-800zM461 1500l222 300h140l138 -300h-120l-102 200l-158 -200h-120z" />
<glyph unicode="&#xcb;" d="M100 0l197 1400h800l-14 -100h-700l-78 -550h700l-14 -100h-700l-77 -550h700l-14 -100h-800zM511 1500l28 200h100l-28 -200h-100zM811 1500l28 200h100l-28 -200h-100z" />
<glyph unicode="&#xcc;" horiz-adv-x="300" d="M100 0l197 1400h100l-197 -1400h-100zM271 1800h110l48 -300h-110z" />
<glyph unicode="&#xcd;" horiz-adv-x="300" d="M100 0l197 1400h100l-197 -1400h-100zM295 1500l132 300h110l-132 -300h-110z" />
<glyph unicode="&#xce;" horiz-adv-x="300" d="M100 0l197 1400h100l-197 -1400h-100zM112 1500l222 300h140l138 -300h-120l-102 200l-158 -200h-120z" />
<glyph unicode="&#xcf;" horiz-adv-x="300" d="M100 0l197 1400h100l-197 -1400h-100zM162 1500l28 200h100l-28 -200h-100zM462 1500l28 200h100l-28 -200h-100z" />
<glyph unicode="&#xd0;" horiz-adv-x="1100" d="M-9 650l14 100h200l92 650h600q263 0 263 -231q0 -32 -5 -69l-113 -800q-42 -300 -342 -300h-600l91 650h-200zM214 100h500q200 0 228 200l113 800q3 25 3 46q0 154 -175 154h-500l-78 -550h200l-14 -100h-200z" />
<glyph unicode="&#xd1;" horiz-adv-x="1100" d="M100 0l197 1400h100l531 -1200l169 1200h100l-197 -1400h-100l-531 1200l-169 -1200h-100zM391 1500q35 250 225 250q130 0 184.5 -75t154.5 -75q90 0 111 150h100q-35 -250 -225 -250q-130 0 -184.5 75t-154.5 75q-90 0 -111 -150h-100z" />
<glyph unicode="&#xd2;" horiz-adv-x="1150" d="M137 231q0 32 5 69l113 800q42 300 342 300h350q263 0 263 -231q0 -32 -5 -69l-113 -800q-42 -300 -342 -300h-350q-263 0 -263 231zM239 254q0 -154 175 -154h350q200 0 228 200l113 800q3 25 3 46q0 154 -175 154h-350q-200 0 -228 -200l-113 -800q-3 -25 -3 -46z M695 1800h110l48 -300h-110z" />
<glyph unicode="&#xd3;" horiz-adv-x="1150" d="M137 231q0 32 5 69l113 800q42 300 342 300h350q263 0 263 -231q0 -32 -5 -69l-113 -800q-42 -300 -342 -300h-350q-263 0 -263 231zM239 254q0 -154 175 -154h350q200 0 228 200l113 800q3 25 3 46q0 154 -175 154h-350q-200 0 -228 -200l-113 -800q-3 -25 -3 -46z M719 1500l132 300h110l-132 -300h-110z" />
<glyph unicode="&#xd4;" horiz-adv-x="1150" d="M137 231q0 32 5 69l113 800q42 300 342 300h350q263 0 263 -231q0 -32 -5 -69l-113 -800q-42 -300 -342 -300h-350q-263 0 -263 231zM239 254q0 -154 175 -154h350q200 0 228 200l113 800q3 25 3 46q0 154 -175 154h-350q-200 0 -228 -200l-113 -800q-3 -25 -3 -46z M536 1500l222 300h140l138 -300h-120l-102 200l-158 -200h-120z" />
<glyph unicode="&#xd5;" horiz-adv-x="1150" d="M137 231q0 32 5 69l113 800q42 300 342 300h350q263 0 263 -231q0 -32 -5 -69l-113 -800q-42 -300 -342 -300h-350q-263 0 -263 231zM239 254q0 -154 175 -154h350q200 0 228 200l113 800q3 25 3 46q0 154 -175 154h-350q-200 0 -228 -200l-113 -800q-3 -25 -3 -46z M416 1500q35 250 225 250q130 0 184.5 -75t154.5 -75q90 0 111 150h100q-35 -250 -225 -250q-130 0 -184.5 75t-154.5 75q-90 0 -111 -150h-100z" />
<glyph unicode="&#xd6;" horiz-adv-x="1150" d="M137 231q0 32 5 69l113 800q42 300 342 300h350q263 0 263 -231q0 -32 -5 -69l-113 -800q-42 -300 -342 -300h-350q-263 0 -263 231zM239 254q0 -154 175 -154h350q200 0 228 200l113 800q3 25 3 46q0 154 -175 154h-350q-200 0 -228 -200l-113 -800q-3 -25 -3 -46z M586 1500l28 200h100l-28 -200h-100zM886 1500l28 200h100l-28 -200h-100z" />
<glyph unicode="&#xd7;" horiz-adv-x="907" d="M159 417l322 283l-243 283l81 71l243 -283l322 283l61 -71l-323 -283l244 -283l-81 -71l-243 283l-322 -283z" />
<glyph unicode="&#xd8;" horiz-adv-x="1150" d="M137 231q0 32 5 69l113 800q42 300 342 300h352l86 200h100l-91 -210q166 -38 166 -222q0 -32 -5 -68l-113 -800q-42 -300 -342 -300h-302l-86 -200h-100l86 202q-211 22 -211 229zM239 254q0 -144 152 -154l515 1200h-323q-200 0 -228 -200l-113 -800q-3 -24 -3 -46z M491 100h273q200 0 228 200l113 800q3 24 3 45q0 120 -105 147z" />
<glyph unicode="&#xd9;" horiz-adv-x="1100" d="M137 231q0 32 5 69l155 1100h100l-155 -1100q-3 -25 -3 -46q0 -154 175 -154h300q200 0 228 200l155 1100h100l-155 -1100q-42 -300 -342 -300h-300q-263 0 -263 231zM670 1800h110l48 -300h-110z" />
<glyph unicode="&#xda;" horiz-adv-x="1100" d="M137 231q0 32 5 69l155 1100h100l-155 -1100q-3 -25 -3 -46q0 -154 175 -154h300q200 0 228 200l155 1100h100l-155 -1100q-42 -300 -342 -300h-300q-263 0 -263 231zM694 1500l132 300h110l-132 -300h-110z" />
<glyph unicode="&#xdb;" horiz-adv-x="1100" d="M137 231q0 32 5 69l155 1100h100l-155 -1100q-3 -25 -3 -46q0 -154 175 -154h300q200 0 228 200l155 1100h100l-155 -1100q-42 -300 -342 -300h-300q-263 0 -263 231zM511 1500l222 300h140l138 -300h-120l-102 200l-158 -200h-120z" />
<glyph unicode="&#xdc;" horiz-adv-x="1100" d="M137 231q0 32 5 69l155 1100h100l-155 -1100q-3 -25 -3 -46q0 -154 175 -154h300q200 0 228 200l155 1100h100l-155 -1100q-42 -300 -342 -300h-300q-263 0 -263 231zM561 1500l28 200h100l-28 -200h-100zM861 1500l28 200h100l-28 -200h-100z" />
<glyph unicode="&#xdd;" d="M197 1400h110l291 -700l489 700h110l-563 -800l-84 -600h-100l84 600zM644 1500l132 300h110l-132 -300h-110z" />
<glyph unicode="&#xde;" horiz-adv-x="1100" d="M100 0l197 1400h100l-47 -330h500q263 0 263 -231q0 -32 -5 -69l-21 -150q-42 -300 -342 -300h-500l-45 -320h-100zM259 420h500q200 0 228 200l21 150q3 25 3 46q0 154 -175 154h-500z" />
<glyph unicode="&#xdf;" horiz-adv-x="1100" d="M100 0l155 1100q42 300 342 300h300q263 0 263 -231q0 -32 -5 -69l-21 -150q-31 -220 -206 -250q140 -25 140 -186q0 -29 -5 -64l-21 -150q-42 -300 -342 -300h-300l14 100h300q200 0 228 200l21 150q3 25 3 46q0 154 -175 154h-300l14 100h300q200 0 229 200l21 150 q3 25 3 46q0 154 -175 154h-300q-200 0 -228 -200l-155 -1100h-100z" />
<glyph unicode="&#xe0;" d="M137 231q0 32 5 69q42 300 342 300h100q200 0 286 -100l28 200q3 25 3 46q0 154 -175 154h-400l15 100h400q262 0 262 -230q0 -32 -5 -70l-98 -700h-70l-16 100q-114 -100 -314 -100h-100q-263 0 -263 231zM239 254q0 -154 175 -154h100q200 0 314 100l28 200 q-86 100 -286 100h-100q-200 0 -228 -200q-3 -25 -3 -46zM564 1400h110l48 -300h-110z" />
<glyph unicode="&#xe1;" d="M137 231q0 32 5 69q42 300 342 300h100q200 0 286 -100l28 200q3 25 3 46q0 154 -175 154h-400l15 100h400q262 0 262 -230q0 -32 -5 -70l-98 -700h-70l-16 100q-114 -100 -314 -100h-100q-263 0 -263 231zM239 254q0 -154 175 -154h100q200 0 314 100l28 200 q-86 100 -286 100h-100q-200 0 -228 -200q-3 -25 -3 -46zM588 1100l132 300h110l-132 -300h-110z" />
<glyph unicode="&#xe2;" d="M137 231q0 32 5 69q42 300 342 300h100q200 0 286 -100l28 200q3 25 3 46q0 154 -175 154h-400l15 100h400q262 0 262 -230q0 -32 -5 -70l-98 -700h-70l-16 100q-114 -100 -314 -100h-100q-263 0 -263 231zM239 254q0 -154 175 -154h100q200 0 314 100l28 200 q-86 100 -286 100h-100q-200 0 -228 -200q-3 -25 -3 -46zM405 1100l222 300h140l138 -300h-120l-102 200l-158 -200h-120z" />
<glyph unicode="&#xe3;" d="M137 231q0 32 5 69q42 300 342 300h100q200 0 286 -100l28 200q3 25 3 46q0 154 -175 154h-400l15 100h400q262 0 262 -230q0 -32 -5 -70l-98 -700h-70l-16 100q-114 -100 -314 -100h-100q-263 0 -263 231zM239 254q0 -154 175 -154h100q200 0 314 100l28 200 q-86 100 -286 100h-100q-200 0 -228 -200q-3 -25 -3 -46zM285 1100q35 250 225 250q130 0 184.5 -75t154.5 -75q90 0 111 150h100q-35 -250 -225 -250q-130 0 -184.5 75t-154.5 75q-90 0 -111 -150h-100z" />
<glyph unicode="&#xe4;" d="M137 231q0 32 5 69q42 300 342 300h100q200 0 286 -100l28 200q3 25 3 46q0 154 -175 154h-400l15 100h400q262 0 262 -230q0 -32 -5 -70l-98 -700h-70l-16 100q-114 -100 -314 -100h-100q-263 0 -263 231zM239 254q0 -154 175 -154h100q200 0 314 100l28 200 q-86 100 -286 100h-100q-200 0 -228 -200q-3 -25 -3 -46zM455 1100l28 200h100l-28 -200h-100zM755 1100l28 200h100l-28 -200h-100z" />
<glyph unicode="&#xe5;" d="M137 231q0 32 5 69q42 300 342 300h100q200 0 286 -100l28 200q3 25 3 46q0 154 -175 154h-400l15 100h400q262 0 262 -230q0 -32 -5 -70l-98 -700h-70l-16 100q-114 -100 -314 -100h-100q-263 0 -263 231zM239 254q0 -154 175 -154h100q200 0 314 100l28 200 q-86 100 -286 100h-100q-200 0 -228 -200q-3 -25 -3 -46zM481 1269q0 15 2 31q11 83 78 141.5t150 58.5t133 -58q41 -48 41 -113q0 -14 -2 -29q-12 -83 -78.5 -141.5t-149.5 -58.5t-133 59q-41 47 -41 110zM582 1285q0 -32 21 -55q25 -30 66 -30t74.5 29.5t39.5 70.5 q1 7 1 13q0 33 -21 58q-25 29 -66 29t-75 -29.5t-39 -70.5q-1 -8 -1 -15z" />
<glyph unicode="&#xe6;" horiz-adv-x="1550" d="M137 231q0 32 5 69q42 300 342 300h130q100 0 186 -100l28 200q3 25 3 46q0 154 -175 154h-330l15 100h330q188 0 224 -147q80 147 276 147h120q262 0 262 -230q0 -32 -5 -70l-35 -250h-620l-21 -150q-3 -25 -3 -46q0 -154 175 -154h370l-14 -100h-370q-182 0 -228 126 q-114 -126 -272 -126h-130q-263 0 -263 231zM239 254q0 -154 175 -154h130q150 0 214 100l28 200q-86 100 -186 100h-130q-200 0 -228 -200q-3 -25 -3 -46zM907 550h520l21 150q3 25 3 46q0 154 -175 154h-120q-200 0 -228 -200z" />
<glyph unicode="&#xe7;" horiz-adv-x="900" d="M137 231q0 32 5 69l56 400q43 300 343 300h400l-15 -100h-400q-200 0 -228 -200l-56 -400q-3 -25 -3 -46q0 -154 175 -154h400l-14 -100h-400q-263 0 -263 231zM301 -350l11 80q76 -30 176 -30q90 0 100 70q1 4 1 8q0 62 -161 62l8 60q17 1 32 1q201 0 201 -112 q0 -9 -1 -19q-21 -150 -191 -150q-100 0 -176 30z" />
<glyph unicode="&#xe8;" d="M137 231q0 32 5 69l56 400q43 300 343 300h200q262 0 262 -230q0 -32 -5 -70l-35 -250h-700l-21 -150q-3 -25 -3 -46q0 -154 175 -154h450l-14 -100h-450q-263 0 -263 231zM277 550h600l21 150q3 25 3 46q0 154 -175 154h-200q-200 0 -228 -200zM564 1400h110l48 -300 h-110z" />
<glyph unicode="&#xe9;" d="M137 231q0 32 5 69l56 400q43 300 343 300h200q262 0 262 -230q0 -32 -5 -70l-35 -250h-700l-21 -150q-3 -25 -3 -46q0 -154 175 -154h450l-14 -100h-450q-263 0 -263 231zM277 550h600l21 150q3 25 3 46q0 154 -175 154h-200q-200 0 -228 -200zM588 1100l132 300h110 l-132 -300h-110z" />
<glyph unicode="&#xea;" d="M137 231q0 32 5 69l56 400q43 300 343 300h200q262 0 262 -230q0 -32 -5 -70l-35 -250h-700l-21 -150q-3 -25 -3 -46q0 -154 175 -154h450l-14 -100h-450q-263 0 -263 231zM277 550h600l21 150q3 25 3 46q0 154 -175 154h-200q-200 0 -228 -200zM405 1100l222 300h140 l138 -300h-120l-102 200l-158 -200h-120z" />
<glyph unicode="&#xeb;" d="M137 231q0 32 5 69l56 400q43 300 343 300h200q262 0 262 -230q0 -32 -5 -70l-35 -250h-700l-21 -150q-3 -25 -3 -46q0 -154 175 -154h450l-14 -100h-450q-263 0 -263 231zM277 550h600l21 150q3 25 3 46q0 154 -175 154h-200q-200 0 -228 -200zM455 1100l28 200h100 l-28 -200h-100zM755 1100l28 200h100l-28 -200h-100z" />
<glyph unicode="&#xec;" horiz-adv-x="300" d="M100 0l141 1000h100l-141 -1000h-100zM215 1400h110l48 -300h-110z" />
<glyph unicode="&#xed;" horiz-adv-x="300" d="M100 0l141 1000h100l-141 -1000h-100zM239 1100l132 300h110l-132 -300h-110z" />
<glyph unicode="&#xee;" horiz-adv-x="300" d="M56 1100l222 300h140l138 -300h-120l-102 200l-158 -200h-120zM100 0l141 1000h100l-141 -1000h-100z" />
<glyph unicode="&#xef;" horiz-adv-x="300" d="M100 0l141 1000h100l-141 -1000h-100zM106 1100l28 200h100l-28 -200h-100zM406 1100l28 200h100l-28 -200h-100z" />
<glyph unicode="&#xf0;" d="M137 231q0 32 5 69l56 400q43 300 343 300h100q200 0 285 -100l36 250h-200l14 100h200l21 150h100l-21 -150h200l-14 -100h-200l-162 -1150h-70l-16 100q-114 -100 -314 -100h-100q-263 0 -263 231zM239 254q0 -154 175 -154h100q200 0 314 100l84 600q-86 100 -286 100 h-100q-200 0 -228 -200l-56 -400q-3 -25 -3 -46z" />
<glyph unicode="&#xf1;" d="M100 0l141 1000h70l15 -100q115 100 315 100h100q262 0 262 -230q0 -32 -5 -70l-98 -700h-100l98 700q3 25 3 46q0 154 -175 154h-100q-200 0 -314 -100l-112 -800h-100zM285 1100q35 250 225 250q130 0 184.5 -75t154.5 -75q90 0 111 150h100q-35 -250 -225 -250 q-130 0 -184.5 75t-154.5 75q-90 0 -111 -150h-100z" />
<glyph unicode="&#xf2;" d="M137 231q0 32 5 69l56 400q43 300 343 300h200q262 0 262 -230q0 -32 -5 -70l-56 -400q-42 -300 -342 -300h-200q-263 0 -263 231zM239 254q0 -154 175 -154h200q200 0 228 200l56 400q3 25 3 46q0 154 -175 154h-200q-200 0 -228 -200l-56 -400q-3 -25 -3 -46zM564 1400 h110l48 -300h-110z" />
<glyph unicode="&#xf3;" d="M137 231q0 32 5 69l56 400q43 300 343 300h200q262 0 262 -230q0 -32 -5 -70l-56 -400q-42 -300 -342 -300h-200q-263 0 -263 231zM239 254q0 -154 175 -154h200q200 0 228 200l56 400q3 25 3 46q0 154 -175 154h-200q-200 0 -228 -200l-56 -400q-3 -25 -3 -46zM588 1100 l132 300h110l-132 -300h-110z" />
<glyph unicode="&#xf4;" d="M137 231q0 32 5 69l56 400q43 300 343 300h200q262 0 262 -230q0 -32 -5 -70l-56 -400q-42 -300 -342 -300h-200q-263 0 -263 231zM239 254q0 -154 175 -154h200q200 0 228 200l56 400q3 25 3 46q0 154 -175 154h-200q-200 0 -228 -200l-56 -400q-3 -25 -3 -46zM405 1100 l222 300h140l138 -300h-120l-102 200l-158 -200h-120z" />
<glyph unicode="&#xf5;" d="M137 231q0 32 5 69l56 400q43 300 343 300h200q262 0 262 -230q0 -32 -5 -70l-56 -400q-42 -300 -342 -300h-200q-263 0 -263 231zM239 254q0 -154 175 -154h200q200 0 228 200l56 400q3 25 3 46q0 154 -175 154h-200q-200 0 -228 -200l-56 -400q-3 -25 -3 -46zM285 1100 q35 250 225 250q130 0 184.5 -75t154.5 -75q90 0 111 150h100q-35 -250 -225 -250q-130 0 -184.5 75t-154.5 75q-90 0 -111 -150h-100z" />
<glyph unicode="&#xf6;" d="M137 231q0 32 5 69l56 400q43 300 343 300h200q262 0 262 -230q0 -32 -5 -70l-56 -400q-42 -300 -342 -300h-200q-263 0 -263 231zM239 254q0 -154 175 -154h200q200 0 228 200l56 400q3 25 3 46q0 154 -175 154h-200q-200 0 -228 -200l-56 -400q-3 -25 -3 -46zM455 1100 l28 200h100l-28 -200h-100zM755 1100l28 200h100l-28 -200h-100z" />
<glyph unicode="&#xf7;" horiz-adv-x="900" d="M191 650l14 100h700l-14 -100h-700zM428 200l28 200h100l-28 -200h-100zM541 1000l28 200h100l-28 -200h-100z" />
<glyph unicode="&#xf8;" d="M137 231q0 32 5 69l56 400q43 300 343 300h194l94 200h100l-98 -208q172 -36 172 -222q0 -32 -5 -70l-56 -400q-42 -300 -342 -300h-195l-93 -200h-100l97 208q-172 36 -172 223zM239 254q0 -123 112 -148l340 794h-165q-200 0 -228 -200l-56 -400q-3 -24 -3 -46z M448 100h166q200 0 228 200l56 400q4 25 4 48q0 121 -112 146z" />
<glyph unicode="&#xf9;" d="M137 231q0 32 5 69l99 700h100l-99 -700q-3 -25 -3 -46q0 -154 175 -154h100q200 0 314 100l113 800h100l-141 -1000h-70l-16 100q-114 -100 -314 -100h-100q-263 0 -263 231zM564 1400h110l48 -300h-110z" />
<glyph unicode="&#xfa;" d="M137 231q0 32 5 69l99 700h100l-99 -700q-3 -25 -3 -46q0 -154 175 -154h100q200 0 314 100l113 800h100l-141 -1000h-70l-16 100q-114 -100 -314 -100h-100q-263 0 -263 231zM588 1100l132 300h110l-132 -300h-110z" />
<glyph unicode="&#xfb;" d="M137 231q0 32 5 69l99 700h100l-99 -700q-3 -25 -3 -46q0 -154 175 -154h100q200 0 314 100l113 800h100l-141 -1000h-70l-16 100q-114 -100 -314 -100h-100q-263 0 -263 231zM405 1100l222 300h140l138 -300h-120l-102 200l-158 -200h-120z" />
<glyph unicode="&#xfc;" d="M137 231q0 32 5 69l99 700h100l-99 -700q-3 -25 -3 -46q0 -154 175 -154h100q200 0 314 100l113 800h100l-141 -1000h-70l-16 100q-114 -100 -314 -100h-100q-263 0 -263 231zM455 1100l28 200h100l-28 -200h-100zM755 1100l28 200h100l-28 -200h-100z" />
<glyph unicode="&#xfd;" d="M137 231q0 32 5 69l99 700h100l-99 -700q-3 -25 -3 -46q0 -154 175 -154h100q200 0 314 100l113 800h100l-155 -1100q-42 -300 -342 -300h-400l14 100h400q200 0 228 200l28 200q-114 -100 -314 -100h-100q-263 0 -263 231zM588 1100l132 300h110l-132 -300h-110z" />
<glyph unicode="&#xfe;" d="M44 -400l253 1800h100l-71 -500q115 100 315 100h100q262 0 262 -230q0 -32 -5 -70l-56 -400q-42 -300 -342 -300h-100q-200 0 -286 100l-70 -500h-100zM228 200q86 -100 286 -100h100q200 0 228 200l56 400q3 25 3 46q0 154 -175 154h-100q-200 0 -314 -100z" />
<glyph unicode="&#xff;" d="M137 231q0 32 5 69l99 700h100l-99 -700q-3 -25 -3 -46q0 -154 175 -154h100q200 0 314 100l113 800h100l-155 -1100q-42 -300 -342 -300h-400l14 100h400q200 0 228 200l28 200q-114 -100 -314 -100h-100q-263 0 -263 231zM455 1100l28 200h100l-28 -200h-100zM755 1100 l28 200h100l-28 -200h-100z" />
<glyph unicode="&#x152;" horiz-adv-x="1700" d="M137 231q0 32 5 69l113 800q42 300 342 300h300q138 0 187 -92l13 92h700l-14 -100h-600l-78 -550h600l-14 -100h-600l-77 -550h600l-14 -100h-700l13 91q-75 -91 -213 -91h-300q-263 0 -263 231zM239 254q0 -154 175 -154h300q200 0 228 200l113 800q3 25 3 46 q0 154 -175 154h-300q-200 0 -228 -200l-113 -800q-3 -25 -3 -46z" />
<glyph unicode="&#x153;" horiz-adv-x="1500" d="M137 231q0 32 5 69l56 400q43 300 343 300h100q188 0 230 -136q81 136 270 136h100q262 0 262 -230q0 -32 -5 -70l-35 -250h-600l-21 -150q-3 -25 -3 -46q0 -154 175 -154h350l-14 -100h-350q-189 0 -231 135q-81 -135 -269 -135h-100q-263 0 -263 231zM239 254 q0 -154 175 -154h100q200 0 228 200l56 400q3 25 3 46q0 154 -175 154h-100q-200 0 -228 -200l-56 -400q-3 -25 -3 -46zM877 550h500l21 150q3 25 3 46q0 154 -175 154h-100q-200 0 -228 -200z" />
<glyph unicode="&#x178;" d="M197 1400h110l291 -700l489 700h110l-563 -800l-84 -600h-100l84 600zM511 1500l28 200h100l-28 -200h-100zM811 1500l28 200h100l-28 -200h-100z" />
<glyph unicode="&#x2c6;" horiz-adv-x="700" d="M297 1400h120l102 -200l158 200h120l-222 -300h-140z" />
<glyph unicode="&#x2dc;" horiz-adv-x="600" d="M255 1100l132 300h110l-132 -300h-110zM455 1100l132 300h110l-132 -300h-110z" />
<glyph unicode="&#x2000;" horiz-adv-x="950" />
<glyph unicode="&#x2001;" horiz-adv-x="1900" />
<glyph unicode="&#x2002;" horiz-adv-x="950" />
<glyph unicode="&#x2003;" horiz-adv-x="1900" />
<glyph unicode="&#x2004;" horiz-adv-x="633" />
<glyph unicode="&#x2005;" horiz-adv-x="475" />
<glyph unicode="&#x2006;" horiz-adv-x="316" />
<glyph unicode="&#x2007;" horiz-adv-x="316" />
<glyph unicode="&#x2008;" horiz-adv-x="237" />
<glyph unicode="&#x2009;" horiz-adv-x="380" />
<glyph unicode="&#x200a;" horiz-adv-x="105" />
<glyph unicode="&#x2010;" horiz-adv-x="700" d="M191 650l14 100h500l-14 -100h-500z" />
<glyph unicode="&#x2011;" horiz-adv-x="700" d="M191 650l14 100h500l-14 -100h-500z" />
<glyph unicode="&#x2012;" horiz-adv-x="700" d="M191 650l14 100h500l-14 -100h-500z" />
<glyph unicode="&#x2013;" horiz-adv-x="700" d="M191 650l14 100h500l-14 -100h-500z" />
<glyph unicode="&#x2014;" horiz-adv-x="900" d="M191 650l14 100h700l-14 -100h-700z" />
<glyph unicode="&#x2018;" horiz-adv-x="400" d="M297 1400h100l58 -300h-100z" />
<glyph unicode="&#x2019;" horiz-adv-x="400" d="M255 1100l142 300h100l-142 -300h-100z" />
<glyph unicode="&#x201a;" horiz-adv-x="400" d="M86 -100l142 300h100l-142 -300h-100z" />
<glyph unicode="&#x201c;" horiz-adv-x="600" d="M297 1400h100l58 -300h-100zM497 1400h100l58 -300h-100z" />
<glyph unicode="&#x201d;" horiz-adv-x="600" d="M255 1100l142 300h100l-142 -300h-100zM455 1100l142 300h100l-142 -300h-100z" />
<glyph unicode="&#x201e;" horiz-adv-x="600" d="M72 -200l142 300h100l-142 -300h-100zM272 -200l142 300h100l-142 -300h-100z" />
<glyph unicode="&#x2022;" horiz-adv-x="500" d="M184 600l42 300h300l-42 -300h-300z" />
<glyph unicode="&#x2026;" horiz-adv-x="900" d="M100 0l28 200h100l-28 -200h-100zM400 0l28 200h100l-28 -200h-100zM700 0l28 200h100l-28 -200h-100z" />
<glyph unicode="&#x202f;" horiz-adv-x="380" />
<glyph unicode="&#x2039;" horiz-adv-x="600" d="M191 650l344 450h120l-344 -450l217 -450h-120z" />
<glyph unicode="&#x203a;" horiz-adv-x="600" d="M128 200l343 450l-216 450h120l216 -450l-343 -450h-120z" />
<glyph unicode="&#x205f;" horiz-adv-x="475" />
<glyph unicode="&#x20ac;" horiz-adv-x="1100" d="M170 500l14 100h150l28 200h-150l14 100h150l29 200q42 300 342 300h450l-14 -100h-450q-200 0 -228 -200l-29 -200h575l-39 -100h-550l-28 -200h500l-40 -100h-474l-28 -200q-3 -25 -3 -46q0 -154 175 -154h450l-14 -100h-450q-263 0 -263 231q0 32 5 69l28 200h-150z " />
<glyph unicode="&#x2122;" horiz-adv-x="1300" d="M283 1300l14 100h400l-14 -100h-150l-71 -500h-100l71 500h-150zM712 800l85 600h150l87 -450l213 450h150l-85 -600h-100l64 450l-214 -450h-100l-86 450l-64 -450h-100z" />
<glyph unicode="&#x25fc;" d="M0 0v1000h1000v-1000h-1000z" />
</font>
</defs>
</svg>
